<svg width="82" height="62" viewBox="0 0 82 62" fill="none" xmlns="http://www.w3.org/2000/svg">
    <path d="M22.5062 29.2777L20.4172 31.9636C20.1468 32.3112 20 32.7391 20 33.1796C20 33.7049 20.2087 34.2087 20.5801 34.5801L23.3324 37.3324C25.6621 39.6621 28.8874 40.8676 32.174 40.6369L55.5 39H56.1575C58.0175 39 59.8425 38.4945 61.4374 37.5375L63.1652 36.5009C63.7104 36.1738 64.151 35.6979 64.4354 35.1292C65.2878 33.4245 64.5446 31.3532 62.8029 30.5791L62.4439 30.4195C61.8263 30.145 61.2952 29.7075 60.9077 29.1538L58.9266 26.3238C58.3117 25.4452 57.8172 24.4882 57.4565 23.4783L56.0913 19.6555C55.7136 18.598 55.784 17.4321 56.2862 16.4276C56.4282 16.1435 56.6027 15.8767 56.8061 15.6327L58.4088 13.7095C58.7908 13.251 59 12.6732 59 12.0765C59 11.1103 58.4541 10.2271 57.59 9.79498L57.0409 9.52046C56.3788 9.18941 55.6068 9.1573 54.9194 9.43222C54.0437 9.78253 53.4274 10.581 53.3104 11.517L53.1164 13.069C53.0417 13.6662 53.2018 14.2691 53.563 14.7506C54.1296 15.5061 54.1824 16.5294 53.6965 17.3392L53 18.5L49.8872 24.103C49.1313 25.4636 47.1348 25.337 46.5568 23.8919L46.5044 23.7611C46.2104 23.0261 46.4715 22.1857 47.1301 21.7466C47.3725 21.585 47.5685 21.3629 47.6988 21.1024L48.7821 18.9358C49.5201 17.4598 49.3016 15.6852 48.2277 14.4323C47.4485 13.5232 46.3109 13 45.1136 13H44.6213C43.2631 13 41.9604 13.5396 41 14.5L40.8274 14.6726C39.9775 15.5225 39.5 16.6753 39.5 17.8773V18.4692C39.5 19.4392 39.9308 20.359 40.676 20.98C41.7636 21.8864 42.144 23.39 41.6182 24.7045L41.4735 25.0662C40.5054 27.4866 37.4447 28.2383 35.4654 26.5418L33.1739 24.5777C32.7271 24.1947 32.3394 23.7476 32.0235 23.2511L29.6258 19.4834C29.2171 18.8411 29 18.0956 29 17.3343V17.25C29 16.4386 29.2632 15.6491 29.75 15C30.2368 14.3509 30.5 13.5614 30.5 12.75V12.4577C30.5 11.831 30.3297 11.2161 30.0072 10.6787L29.7678 10.2797C29.2915 9.48578 28.4335 9 27.5076 9C27.1723 9 26.84 9.06399 26.5287 9.18852L25.7931 9.48276C24.9674 9.81306 24.3131 10.4674 23.9828 11.2931C23.6729 12.0679 23.6729 12.9321 23.9828 13.7069L24.0767 13.9417C24.3494 14.6234 24.8628 15.1814 25.5195 15.5098C26.6967 16.0984 27.3524 17.3859 27.136 18.6841L27.0665 19.1013C27.0223 19.3662 26.9484 19.6254 26.8461 19.8738L24.1163 26.5033C23.7073 27.4965 23.1657 28.4298 22.5062 29.2777Z" fill="white"/>
    <path d="M20.8237 29.1377L17.3237 33.6377V35.1377L24.3237 42.1377L52.8237 40.1377H56.3237L61.3237 37.1377L63.3237 33.1377L58.8237 31.1377L55.3237 26.1377L52.8237 19.1377L53.8237 17.1377L56.3237 14.1377V11.6377L53.3237 10.1377L50.8237 11.1377L50.3237 15.1377L51.8237 17.1377L50.3237 19.6377L45.3237 28.6377L43.3237 23.6377L44.8237 22.6377L47.3237 17.6377L44.3237 14.1377H39.8237L36.8237 17.1377V21.1377L39.8237 23.6377L36.8237 31.1377L29.8237 25.1377L26.3237 19.6377V17.1377L27.8237 15.1377V12.6377L26.3237 10.1377H24.3237L21.8237 11.1377L20.8237 13.6377L21.8237 16.1377L24.8237 17.6377L24.3237 20.6377L20.8237 29.1377Z" fill="#F49A05"/>
    <path d="M13.3237 56.1377L6.82373 51.1377V47.6377L6.32373 44.6377L8.32373 35.6377L4.82373 23.1377L2.82373 21.6377L0.82373 17.1377L3.32373 13.1377H6.82373L9.82373 17.1377L8.32373 21.1377L22.3237 40.1377L26.3237 41.6377L30.8237 39.1377L36.3237 32.1377L39.8237 23.6377L38.8237 22.1377L36.3237 19.6377L37.3237 16.1377L41.3237 13.6377L44.8237 14.6377L47.3237 17.6377L45.8237 21.1377L43.3237 23.1377L51.8237 39.1377L55.3237 40.1377L58.8237 39.1377L63.3237 34.6377L71.3237 21.1377L70.8237 17.6377L71.3237 13.1377L75.3237 11.6377L79.8237 13.1377L81.3237 17.1377L78.8237 20.6377L75.3237 22.1377L72.3237 37.6377L72.8237 42.1377L74.3237 44.1377L72.8237 46.1377L71.3237 47.6377L72.8237 49.1377L74.3237 51.6377L67.8237 56.1377L53.3237 58.6377L29.3237 59.6377L20.8237 59.1377L13.3237 56.1377Z" fill="#F0B60A"/>
    <path d="M77.8988 11.3252C75.7524 10.4365 73.0813 10.832 71.4763 12.9978C70.2265 13.971 69.3818 15.3729 69.1054 16.9326C68.829 18.4923 69.1405 20.0991 69.9798 21.4426C68.0757 24.942 65.9823 28.5247 63.661 31.8445C61.8714 32.5596 59.7455 31.2476 58.3382 29.6498C55.7058 26.6592 54.3069 22.9559 53.8113 17.7116C55.4369 17.2123 56.6753 15.8654 57.1179 14.5063C57.6147 12.9736 57.0973 11.1829 55.8577 10.1531C54.6229 9.12447 52.7706 8.93394 51.3513 9.69124C48.7647 11.0708 48.2401 15.7182 50.8931 17.3884C50.7399 18.1445 49.8886 18.9705 49.4195 19.6301C46.0189 24.4175 45.7886 24.8588 45.0663 25.3786C44.8311 24.7973 44.608 24.2101 44.3946 23.618C46.2637 22.8462 47.6758 21.006 47.835 18.9488C48.0195 16.5672 46.529 14.1699 44.2909 13.2474C39.3926 11.2263 34.5064 16.3561 36.2416 20.965C36.6589 22.0744 37.7309 23.2249 38.9223 23.7C38.0963 25.8464 37.2353 28.0098 36.2356 30.0984C31.7099 27.0559 28.9617 22.1444 26.568 17.7031C28.4251 16.6359 29.274 14.475 28.8315 12.6601C28.3346 10.6222 26.2774 9.06779 24.2612 9.15221C22.1207 9.22697 20.2347 11.002 20.0587 13.1087C19.8657 15.4324 21.5516 17.8418 23.9754 18.2072C23.1385 19.5578 22.9335 22.9644 19.1253 29.2965C18.4814 30.3613 17.7892 31.3839 16.6629 31.8927C14.1088 28.5283 11.5319 24.7901 9.39264 20.7564C10.0872 19.3479 10.5527 17.3498 10.0824 15.7773C9.55423 14.0131 8.11561 12.5902 6.41894 12.1536C3.93241 11.5169 1.06482 12.9628 0.34129 15.8449C-0.762093 18.4761 0.900819 22.0069 4.01923 22.8474C5.87229 29.8455 6.41845 37.1255 5.63029 44.3218C5.59653 44.288 5.56758 44.2446 5.53382 44.2108C4.67161 44.9585 4.67523 46.3718 5.55914 47.0929C4.24955 49.0766 4.69814 52.0201 6.20308 53.8603C7.70803 55.7005 9.94614 56.7665 12.171 57.6034C23.7957 61.9783 36.6106 61.549 49.0095 60.7953C57.4229 60.284 66.0643 59.5894 73.6505 55.9127C74.5851 55.4605 75.5317 54.9359 76.137 54.0918C77.3055 52.4603 76.5458 50.3825 74.4066 50.479C74.4307 50.3862 74.4777 50.3054 74.491 50.2053C74.5971 49.4564 74.2354 48.6449 73.5914 48.1878C73.4937 48.1184 73.39 48.0579 73.2815 48.0069L73.4346 47.0398C73.8521 46.7467 74.1849 46.3487 74.3996 45.886C74.6142 45.4233 74.7032 44.9123 74.6574 44.4042C74.6117 43.8962 74.4329 43.4092 74.1391 42.9923C73.8452 42.5754 73.4467 42.2433 72.9836 42.0294C73.1621 34.9255 74.3366 28.3306 76.3927 22.8788C78.954 22.4471 81.1704 20.3754 81.5719 17.9395C82.0193 15.2238 80.4396 12.3804 77.8988 11.3252ZM62.2199 33.8125C62.0294 34.0645 61.8509 34.3334 61.6568 34.5806C59.6068 37.1986 57.0672 39.6128 53.7462 39.2354C51.6166 37.5049 48.0942 31.8831 46.33 28.2088C46.6194 28.0375 46.365 28.257 49.2483 24.2209C50.2668 22.8074 51.2682 21.3815 52.2521 19.9436C52.9455 24.5356 54.4432 27.9628 56.9792 30.8448C58.3852 32.4414 60.1084 33.6437 62.2199 33.8125ZM53.2421 11.0358C54.9099 11.0358 55.8239 12.6288 55.3971 13.9456C55.1342 14.7559 54.3576 15.5675 53.5086 15.9196C52.0519 16.5262 50.9642 15.5253 50.9486 13.9022C50.9353 12.4382 51.7046 11.0358 53.2421 11.0358ZM35.4071 31.7324C34.0047 34.3732 31.9029 37.6677 29.344 39.1956C27.8197 40.1048 26.1303 40.4039 24.7013 40.0131C22.2534 39.3415 20.3457 36.6077 18.2655 33.9669C19.2121 33.6304 20.1045 33.0178 20.8413 32.1761C22.9757 29.733 24.9051 23.208 25.7963 20.0727C28.1417 24.3331 30.9357 28.8033 35.4071 31.7324ZM21.8615 13.2582C21.9603 12.0765 23.1108 11.0008 24.3239 10.9586C25.6045 10.9297 26.7887 11.9137 27.0745 13.0882C27.6063 15.2721 24.9365 17.7116 22.8539 15.7231C22.169 15.0695 21.7891 14.1253 21.8615 13.2582ZM72.5616 49.6723C73.0186 50.0557 72.1998 50.7322 71.7126 51.0735C66.8927 54.45 60.2785 55.7137 53.8499 56.5784C39.9485 58.4451 27.2578 58.2027 18.116 55.8946C14.7878 55.0529 10.4345 53.4394 8.1952 51.4292C7.86358 51.1314 7.40776 50.6768 7.27994 50.1787C7.24911 50.0465 7.26319 49.9077 7.31996 49.7844C7.37673 49.661 7.47296 49.56 7.59347 49.4974C8.12405 49.2394 8.10717 48.7449 8.12044 48.3422C17.255 53.5009 29.4139 55.0433 39.852 54.4584C51.1101 53.8229 59.4693 53.0584 71.3449 48.6762L71.3424 48.6883C71.3179 48.845 71.3351 49.0054 71.3921 49.1534C71.4492 49.3014 71.5442 49.4318 71.6676 49.5315C71.791 49.6312 71.9385 49.6967 72.0952 49.7214C72.2519 49.7461 72.4135 49.7292 72.5616 49.6723ZM79.786 17.644C79.4906 19.4408 77.6504 21.0096 75.6836 21.1411C75.5125 21.1526 75.3481 21.2126 75.2097 21.314C75.0714 21.4154 74.9647 21.5541 74.9022 21.7139C72.5821 27.6287 71.2894 34.8761 71.1616 42.6661C71.1579 42.8851 71.2339 43.098 71.3754 43.2652C71.5169 43.4325 71.7143 43.5426 71.9309 43.5753C72.1614 43.6179 72.3733 43.7299 72.5384 43.8963C72.7035 44.0627 72.8138 44.2755 72.8546 44.5063C72.88 44.7393 72.8335 44.9744 72.7215 45.1803C72.6094 45.3861 72.437 45.5528 72.2276 45.6579C71.6463 45.9268 71.7163 46.502 71.6644 46.6588C71.6222 46.6684 71.58 46.6636 71.5378 46.6793C59.4524 51.2496 51.1053 52.0117 39.7507 52.652C27.4857 53.3502 15.9973 51.012 8.12647 46.2524C8.12238 46.1076 8.08328 45.9659 8.01251 45.8395C7.94174 45.713 7.8414 45.6056 7.72008 45.5264C7.48253 45.3757 7.60432 44.78 7.85876 44.458C7.96085 44.3292 8.02589 44.1749 8.04688 44.0119C8.99549 36.5399 8.37825 28.9523 6.23444 21.732C6.16889 21.5201 6.0271 21.3401 5.8365 21.2267C5.77478 21.0967 5.68238 20.9837 5.56726 20.8973C5.45214 20.811 5.31775 20.7539 5.17567 20.7311C2.36114 20.3151 1.05758 17.1134 2.7012 15.0345C4.29297 13.0195 7.52594 13.5489 8.34955 16.2959C8.68961 17.4306 8.22053 19.2394 7.57055 20.3332C7.47171 20.5023 7.43126 20.6992 7.45545 20.8936C7.47964 21.088 7.56712 21.2691 7.70441 21.4088C7.71405 21.4317 7.71285 21.4546 7.72491 21.4763C10.8964 27.4901 15.006 32.8478 18.608 37.2975C20.6435 39.813 22.7394 41.9884 25.9856 41.9884C33.7804 41.9884 38.2108 30.6109 40.9988 23.3394C41.0538 23.1962 41.0714 23.0415 41.0501 22.8896C41.0288 22.7377 40.9692 22.5938 40.877 22.4713C40.7848 22.3487 40.6629 22.2517 40.5228 22.1892C40.3827 22.1268 40.2291 22.101 40.0763 22.1142C39.3986 22.1709 38.2771 21.2364 37.9335 20.3259C36.7529 17.1882 40.1752 13.5054 43.6023 14.9187C45.1109 15.5398 46.1552 17.2123 46.0322 18.8077C45.908 20.4151 44.5887 21.8863 43.0283 22.1576C42.353 22.2746 41.9864 23.1236 42.5653 23.6867C42.5599 23.8005 42.5763 23.9143 42.6135 24.0219C44.5123 29.3419 47.2763 34.3118 50.7942 38.7313C52.1291 40.4111 53.6316 41.8726 55.7817 41.8726C58.5625 41.8726 60.3617 39.8347 62.0186 37.652C65.7568 32.7356 69.6301 27.3948 72.6315 21.6644C72.7079 21.5099 72.7373 21.3363 72.7159 21.1652C72.7912 21.0657 72.8446 20.9515 72.8727 20.83L72.9209 20.754L72.892 20.7239C72.9157 20.5678 72.897 20.4083 72.8377 20.262C70.5068 14.8934 73.882 11.6146 77.2042 12.9954C78.9624 13.7237 80.0959 15.7665 79.786 17.644Z" fill="black"/>
    <ellipse cx="42" cy="45.5" rx="4" ry="3.5" fill="white"/>
    <ellipse cx="14" cy="42.4999" rx="4" ry="3.5" transform="rotate(45.0166 14 42.4999)" fill="white"/>
    <ellipse cx="64.5" cy="42.5" rx="2.5" ry="3.5" fill="white"/>
    <path d="M12.2473 36.3594C10.7038 36.9032 9.50999 39.5333 9.4497 40.7488C9.38337 42.0909 9.93446 43.5585 11.0005 44.8813C13.3845 47.8382 16.849 47.099 16.9816 43.0966C17.025 41.7545 16.8803 40.627 16.5367 39.6478C15.8903 37.8028 14.1213 35.6985 12.2473 36.3582V36.3594ZM14.635 44.7089C14.3854 44.8838 13.9645 44.8958 13.5859 44.7378C12.6127 44.3278 11.1777 42.4177 11.2561 40.8392C11.2947 40.0638 12.2522 38.2743 12.8479 38.0645C13.5027 37.8462 14.5566 39.4633 14.8303 40.2447C15.1921 41.2782 15.4779 44.1204 14.6338 44.7089H14.635ZM45.205 40.1302C44.4913 39.5757 43.6443 39.2185 42.7491 39.0945C41.8538 38.9705 40.9417 39.0839 40.1041 39.4235C35.8932 41.1117 35.6025 46.8095 39.2648 49.1984C44.5948 52.6713 50.1467 43.9166 45.205 40.1302ZM43.864 47.2449C42.7438 48.294 41.5222 48.511 40.2524 47.6838C39.0345 46.8891 38.3399 45.3311 38.5618 43.8937C38.6541 43.2751 38.9073 42.6916 39.2961 42.2017C39.6848 41.7117 40.1955 41.3326 40.777 41.1021C41.3229 40.8768 41.919 40.801 42.5039 40.8824C43.0888 40.9638 43.6415 41.1994 44.1052 41.5652C45.6849 42.7771 45.7947 45.436 43.864 47.2449ZM66.0444 37.4197C64.1451 37.7199 62.6655 40.4078 62.3701 41.8284C61.2209 47.3827 68.3525 48.6573 69.158 42.1829C69.5692 38.8908 67.6796 37.1628 66.0444 37.4197ZM67.3624 41.9598C66.8753 45.8645 63.4855 45.3725 64.1415 42.195C64.3791 41.0518 65.5247 39.3334 66.3278 39.2068C66.5665 39.1622 66.8391 39.3901 67.1116 39.8688C67.395 40.3632 67.477 41.0482 67.3624 41.9598Z" fill="black"/>
    <path d="M17.5127 4.17448C17.57 4.0703 17.6472 3.97844 17.74 3.90414C17.9271 3.75421 18.1661 3.68472 18.4044 3.71095C18.6428 3.73718 18.8609 3.85698 19.011 4.04402L20.7101 6.16155C20.8602 6.3488 20.9298 6.58804 20.9036 6.82662C20.8774 7.06521 20.7574 7.2836 20.5702 7.43375C20.3829 7.58391 20.1437 7.65353 19.9051 7.6273C19.6665 7.60106 19.4481 7.48113 19.298 7.29387L17.6001 5.17634C17.5257 5.08365 17.4702 4.97721 17.437 4.86308C17.4037 4.74896 17.3933 4.6294 17.4063 4.51124C17.4193 4.39309 17.4554 4.27865 17.5127 4.17448Z" fill="white"/>
    <path d="M21.6392 1.2076C21.824 1.05474 22.0619 0.9815 22.3006 1.00399C22.5393 1.02659 22.7593 1.14307 22.9122 1.32782C23.065 1.51257 23.1383 1.75046 23.1158 1.9892C23.0145 3.06219 23.1072 4.14465 23.3895 5.18478C23.4522 5.41633 23.4203 5.6633 23.3009 5.87136C23.1815 6.07941 22.9844 6.23151 22.7528 6.2942C22.5213 6.35688 22.2743 6.32502 22.0662 6.20561C21.8582 6.0862 21.7061 5.88904 21.6434 5.65749C21.3041 4.40818 21.193 3.10792 21.3154 1.81917C21.338 1.58044 21.4545 1.36047 21.6392 1.2076Z" fill="white"/>
    <path d="M24.6834 4.81217L26.3922 2.30031C26.5277 2.10343 26.7357 1.96822 26.9706 1.92422C27.2056 1.88023 27.4484 1.93103 27.646 2.06553C27.8436 2.20002 27.9799 2.40727 28.0252 2.64198C28.0704 2.87669 28.0209 3.11976 27.8875 3.31808L26.1787 5.82993C26.0432 6.02681 25.8352 6.16203 25.6003 6.20602C25.3653 6.25002 25.1225 6.19921 24.9249 6.06472C24.7273 5.93022 24.591 5.72297 24.5457 5.48826C24.5005 5.25356 24.55 5.01048 24.6834 4.81217Z" fill="white"/>
    <path d="M16.5651 5.06797C16.6037 4.95553 16.6641 4.8518 16.7428 4.76272C16.9015 4.58297 17.125 4.4736 17.3644 4.45865C17.6037 4.4437 17.8391 4.5244 18.019 4.68299L20.0554 6.47847C20.2354 6.63726 20.3449 6.86105 20.3599 7.1006C20.3749 7.34015 20.2941 7.57585 20.1353 7.75584C19.9765 7.93583 19.7527 8.04537 19.5132 8.06036C19.2736 8.07535 19.0379 7.99456 18.858 7.83577L16.8227 6.04009C16.7335 5.96151 16.6607 5.86612 16.6084 5.75937C16.5561 5.65262 16.5254 5.53661 16.5179 5.41797C16.5105 5.29934 16.5265 5.1804 16.5651 5.06797Z" fill="black"/>
    <path d="M20.123 1.43859C20.2788 1.25636 20.5007 1.14348 20.7397 1.12478C20.9788 1.10619 21.2155 1.1833 21.3977 1.33916C21.5799 1.49502 21.6928 1.71686 21.7115 1.95592C21.7954 3.03042 22.072 4.08103 22.5282 5.0575C22.6295 5.27491 22.6404 5.52369 22.5584 5.74911C22.4764 5.97453 22.3081 6.15813 22.0907 6.25952C21.8733 6.36091 21.6245 6.37179 21.3991 6.28976C21.1737 6.20772 20.9901 6.0395 20.8887 5.8221C20.3406 4.64929 20.0086 3.38723 19.9086 2.09655C19.89 1.85748 19.9671 1.62082 20.123 1.43859Z" fill="black"/>
    <path d="M23.7392 4.46892L24.9928 1.70167C25.0926 1.4845 25.2744 1.31568 25.4984 1.23212C25.7223 1.14857 25.9702 1.15706 26.1879 1.25575C26.4056 1.35444 26.5754 1.5353 26.6602 1.7588C26.7449 1.9823 26.7377 2.23026 26.6402 2.44849L25.3866 5.21574C25.2868 5.43291 25.105 5.60173 24.8811 5.68529C24.6571 5.76885 24.4092 5.76035 24.1915 5.66166C23.9738 5.56297 23.804 5.38211 23.7192 5.15861C23.6345 4.93511 23.6417 4.68715 23.7392 4.46892Z" fill="black"/>
</svg>
