<svg width="421" height="467" viewBox="0 0 421 467" fill="none" xmlns="http://www.w3.org/2000/svg">
<path d="M26 250.954C26 243.844 21.3746 237.561 14.5857 235.449V235.449C7.9554 233.386 3.37044 227.336 3.17763 220.395L2.08142 180.931C1.76296 169.466 10.9701 160 22.4394 160H35.4957C45.6069 160 51.8427 148.959 46.6218 140.3L42.6307 133.68C40.2817 129.784 42.229 124.718 46.5827 123.399V123.399C50.7209 122.145 52.734 117.468 50.8003 113.601L30.0892 72.1784C25.3428 62.6856 25.6118 51.4571 30.8074 42.2025L38.3761 28.7207C47.2048 12.9946 67.2786 7.66718 82.7434 16.9461L108.864 32.6183C112.582 34.8495 115.809 37.8132 118.347 41.3295L154.582 91.5305C159.644 98.543 167.328 103.208 175.885 104.463L186.446 106.012C195.102 107.282 203.901 104.952 210.794 99.5643L295.628 33.2657C307.574 23.9297 325.101 28.1557 331.48 41.91V41.91C333.757 46.8196 334.273 52.3637 332.941 57.6091L321.31 103.405C319.802 109.343 320.03 115.59 321.967 121.402L325.485 131.956C326.815 135.946 328.919 139.635 331.676 142.812L340.931 153.475C347.009 160.478 355.826 164.5 365.098 164.5H368.277C382.368 164.5 394.8 173.716 398.896 187.198L412.803 232.976C414.875 239.796 414.61 247.113 412.052 253.765L401.236 281.886C399.437 286.563 396.565 290.753 392.85 294.117L382.519 303.473C375.821 309.54 372 318.155 372 327.192V420.631C372 437.654 358.672 451.697 341.672 452.587L200 460L56.3471 452.57C39.3391 451.69 26 437.643 26 420.612V250.954Z" fill="#F0B60A"/>
<path d="M269 263.5L286.5 225.5L313.5 219L331.5 225.5L339.5 198L359.5 181L389.5 186.5L412.5 225.5L404 271L386 301L377.5 316.5L293 296L269 263.5Z" fill="#F49A05"/>
<path d="M153.078 161.071C152.187 151.717 158.641 143.252 167.897 141.633L204.01 135.32C214.281 133.524 223.924 140.803 225.012 151.172L240 294V439.284C240 448.709 232.729 456.539 223.33 457.235L179.261 460.499C168.49 461.297 159.446 452.495 159.951 441.706L166.44 303.277C166.48 302.427 166.46 301.575 166.379 300.727L153.078 161.071Z" fill="white"/>
<path d="M378.101 322.981C379.904 322.567 381.952 321.017 384.975 317.671C397.193 304.135 407.734 286.082 414.194 269.101C424.525 241.909 423.221 209.331 401.219 190.73V182.496C401.192 176.198 398.782 170.143 394.472 165.55C390.163 160.956 384.273 158.165 377.989 157.738C369.916 157.177 361.689 156.805 353.399 156.476C346.876 147.428 339.659 140.12 329.146 134.053C328.4 126.79 325.567 119.898 320.989 114.211C334.876 96.4663 339.288 71.708 332.491 50.211C332.646 49.8322 332.849 49.4746 332.905 49.0467C334.406 37.7967 326.593 28.0617 318.618 26.8694C312.236 25.9015 306.099 27.8303 300.439 30.0466C260.461 45.7222 227.931 76.4633 199.21 103.733C191.509 99.8189 181.809 98.4021 171.387 100.52C129.746 49.194 112.977 19.8417 84.5992 13.2348C78.5254 11.825 69.5969 11.32 63.3337 13.361C58.7397 14.8549 53.774 19 50.4566 23.587C49.4872 23.9754 48.6616 24.654 48.0929 25.5298C40.1043 38.1124 31.2881 55.0715 34.0796 74.7239C36.0803 88.6408 42.8832 101.42 53.3111 110.851C40.0552 119.647 35.342 139.523 48.8013 156.931C39.3283 156.555 29.8593 156.083 20.3958 155.515C9.45447 154.827 0 163.272 0 174.466V225.82C0.00742508 230.888 2.02439 235.746 5.60855 239.329C9.19272 242.912 14.0515 244.927 19.1193 244.932H20.0311C19.5051 247.078 19.9399 233.297 19.7856 416.123C19.7856 436.161 33.5746 454.705 68.3415 459.664C86.5771 462.266 105.002 463.213 123.385 464.117C141.389 465.008 159.484 467.217 177.503 465.506C184.222 464.868 190.899 463.669 197.653 463.535C204.302 463.395 210.523 465.499 217.144 465.92C230.961 466.776 244.659 463.837 258.364 462.624C296.273 459.257 292.443 466.656 363.653 454.831C370.127 453.751 376.916 452.538 381.994 448.379C391.841 440.313 386.434 425.71 377.281 424.167C378.754 417.126 377.821 421.046 378.108 322.974L378.101 322.981ZM213.792 144.861L216.338 145.843C215.762 146.844 215.539 148.01 215.706 149.153C230.126 236.502 238.368 356.408 230.884 449.823C230.786 451.535 230.547 452.587 229.523 453.772C222.734 457.356 214.991 450.7 204.821 449.473C195.633 448.491 187.385 452.138 179.74 453.87C175.062 454.901 168.686 454.67 164.976 451.079C166.968 415.66 181.991 312.348 155.634 159.127C174.375 173.75 204.19 169.591 213.792 144.861ZM315.995 166.056C326.593 166.133 337.177 166.379 347.557 166.772C349.871 170.545 351.94 174.62 353.813 178.926C337.303 185.505 328.704 201.069 328.297 217.354C310.44 207.185 285.542 213.329 272.763 234.391H237.203C235.183 212.424 232.567 190.345 229.348 168.462C250.88 171.267 264.837 171.443 278.935 170.573C291.77 174.15 305.412 174.073 315.995 166.056ZM357.706 188.689C359.417 193.711 360.869 199.112 362.131 204.961C356.261 212.087 363.73 221.927 372.238 219.108C381.019 216.169 381.468 203.025 371.929 200.543C370.861 195.785 369.569 191.081 368.058 186.445C389.737 185.295 411.073 207.725 402.081 250.606C397.58 271.921 388.021 291.841 374.209 308.687C370.092 308.21 359.599 306.113 355.272 305.257C313.575 297.051 305.341 298.636 293.972 291.622C284.546 285.822 277.799 275.449 276.361 264.55C272.405 234.959 303.202 213.539 324.363 227.279C325.791 228.209 327.446 228.731 329.15 228.788C330.853 228.846 332.54 228.436 334.028 227.604C335.516 226.773 336.748 225.55 337.591 224.068C338.434 222.587 338.855 220.903 338.811 219.199C338.558 206.813 344.52 193.936 357.706 188.689ZM241.72 445.531C245.97 388.355 244.932 325.506 238.494 249.183C247.058 252.311 258.392 251.644 266.268 251.504C262.754 271.676 272.496 290.753 288.445 300.586C302.038 308.96 311.485 307.389 353.238 315.581C358.66 316.647 363.513 317.594 367.588 318.303V416.144C367.579 423.796 364.533 431.133 359.119 436.542C353.705 441.95 346.365 444.989 338.713 444.991L241.72 445.531ZM227.672 157.654C227.251 155.017 226.865 152.365 226.437 149.728C233.521 152.604 235.499 153.509 251.315 160.074C243.406 159.568 235.519 158.761 227.672 157.654ZM77.333 248.895L156.77 251.686C162.122 315.792 161.54 380.689 154.975 444.977H59.1395C51.491 444.97 44.1579 441.928 38.7496 436.52C33.3412 431.111 30.2996 423.778 30.2922 416.13V246.286C42.2856 249.681 61.4681 248.334 77.326 248.895H77.333ZM390.635 181.844C382.857 177.047 374.216 174.901 364.116 176.289C362.873 173.252 361.497 170.27 359.992 167.354C365.771 167.613 371.593 167.838 377.267 168.238C380.774 168.475 384.072 169.992 386.534 172.5C388.997 175.008 390.461 178.333 390.635 181.844ZM339.561 155.992C334.638 155.851 329.707 155.739 324.727 155.662C326.838 151.692 327.694 149.048 328.395 145.983C332.489 148.879 336.236 152.238 339.561 155.992ZM312.544 107.702C311.222 107.357 309.817 107.543 308.631 108.221C307.588 108.787 306.419 109.08 305.233 109.071C304.047 109.062 302.883 108.753 301.849 108.172C301.254 107.819 300.597 107.587 299.913 107.489C299.229 107.39 298.532 107.427 297.863 107.598C297.193 107.768 296.564 108.069 296.011 108.483C295.458 108.897 294.991 109.416 294.638 110.01C294.286 110.604 294.053 111.262 293.955 111.945C293.856 112.629 293.893 113.326 294.064 113.995C294.235 114.665 294.535 115.294 294.949 115.848C295.363 116.401 295.882 116.867 296.476 117.22C300.677 119.71 305.587 120.313 310.742 118.623C327.806 135.189 318.303 173.891 277.146 158.965C257.101 151.685 237.947 142.539 216.232 134.537C216.864 127.018 215.152 120.537 211.687 115.004C251.299 100.198 288.763 80.1848 323.093 55.4923C327.954 73.265 323.935 93.205 312.544 107.702ZM304.275 39.8447C309.248 37.9019 313.323 36.7377 317.068 37.2777C318.541 37.4952 321.094 39.7886 322.118 43.2394C289.621 67.2545 254.138 86.9411 216.562 101.804C242.071 77.873 270.722 53.0024 304.275 39.8447ZM205.915 132.124C205.845 134.495 205.494 136.753 204.849 138.892C196.482 167.424 154.021 159.197 152.422 134.565C148.866 105.339 205.845 99.4892 205.915 132.124ZM66.5881 23.3696C70.67 22.037 77.6907 22.4367 82.2076 23.4888C105.689 28.9455 121.463 55.1767 160.747 104.076C160.551 104.167 160.347 104.252 160.158 104.35C139.811 94.0887 120.397 80.7977 103.74 69.0147C87.7063 57.7437 71.2381 45.3715 59.4481 29.0717C61.4751 26.5468 64.3928 24.085 66.5881 23.3696ZM64.3577 117.634C74.4083 125.98 89.4667 117.928 83.954 110.83C83.529 110.285 83.0009 109.829 82.3997 109.489C81.7985 109.148 81.136 108.929 80.4502 108.844C79.7643 108.76 79.0685 108.811 78.4025 108.995C77.7364 109.18 77.1133 109.493 76.5685 109.919C74.8782 111.237 71.5678 110.718 70.3684 108.86C69.7931 107.965 68.9585 107.266 67.9761 106.858C66.9937 106.449 65.91 106.35 64.8697 106.573C59.392 102.694 54.7604 97.742 51.2565 92.0172C47.7527 86.2923 45.4498 79.9147 44.4879 73.272C42.6222 60.1354 47.3354 47.9666 52.9113 37.944C65.3677 54.2018 82.4039 66.8755 97.6798 77.6135C113.285 88.6531 131.346 100.934 150.479 111.097C140.232 121.126 139.292 135.946 146.081 148.031C141.817 150.493 137.469 152.351 132.917 154.273C120.103 159.653 109.694 165.986 92.4476 167.228C80.8188 167.943 76.3161 165.425 66.9247 159.484C66.0901 159.015 65.9568 158.629 65.003 158.103C56.9723 152.246 51.9855 144.461 51.2982 136.669C50.5758 128.645 56.0044 118.903 64.3577 117.634ZM10.5135 174.473C10.5135 169.458 14.7358 165.706 19.7225 166.021C32.5225 166.793 45.9047 167.403 60.6545 167.894C73.5737 176.647 81.2327 178.485 93.1559 177.72C112.836 176.317 125.349 168.855 136.992 163.973C139.678 162.837 142.413 161.673 145.17 160.375C149.476 185.316 152.836 210.172 155.234 234.419H19.1123C14.3711 234.419 10.5135 230.561 10.5135 225.827V174.473Z" fill="black"/>
<path d="M194.574 356.078C194.494 356.784 194.558 357.499 194.761 358.179C194.965 358.86 195.305 359.492 195.759 360.038C196.214 360.583 196.774 361.031 197.407 361.355C198.039 361.678 198.731 361.87 199.439 361.919C200.148 361.967 200.859 361.872 201.53 361.639C202.201 361.405 202.817 361.038 203.342 360.56C203.868 360.082 204.291 359.502 204.586 358.856C204.881 358.21 205.042 357.511 205.059 356.801C207.319 323.784 206.723 290.633 203.278 257.718C203.119 256.335 202.424 255.07 201.342 254.194C200.26 253.318 198.878 252.901 197.492 253.033C196.804 253.105 196.137 253.311 195.529 253.641C194.921 253.971 194.384 254.417 193.949 254.955C193.514 255.492 193.189 256.11 192.993 256.773C192.797 257.436 192.734 258.132 192.807 258.819C196.201 291.047 196.797 323.766 194.574 356.078ZM191.579 144.37C202.661 135.505 198.649 115.964 189.749 120.053C189.121 120.342 188.556 120.751 188.086 121.258C187.617 121.765 187.252 122.36 187.012 123.008C186.773 123.656 186.663 124.345 186.69 125.035C186.716 125.726 186.879 126.404 187.168 127.032C188.535 130.013 187.56 134.102 185 136.15C183.91 137.022 183.211 138.292 183.057 139.68C182.904 141.067 183.307 142.459 184.18 143.549C185.052 144.639 186.322 145.338 187.709 145.492C189.097 145.646 190.489 145.242 191.579 144.37Z" fill="black"/>
</svg>
