<svg width="60" height="57" viewBox="0 0 60 57" fill="none" xmlns="http://www.w3.org/2000/svg">
<path d="M9.73229 12.1305C-5.8847 32.3803 10.5613 45.2855 10.5613 45.2855C10.5613 45.2855 12.7955 48.5854 16.3253 51.6119C33.1462 66.0349 57.299 49.2455 59.8964 27.8709C61.4986 14.6863 44.2271 4.76886 28.4728 5.0041C21.2101 5.11254 14.66 5.74101 9.73229 12.1305Z" fill="white"/>
<path d="M45.0256 9.78925C33.793 -6.87838 16.2926 2.7872 16.2926 2.7872C16.2926 2.7872 13.5515 3.55717 9.93152 6.10085C-7.31945 18.2227 -0.314873 43.6819 17.3049 51.082C33.1836 57.7509 56.2581 26.4569 45.0256 9.78925Z" fill="#F49A05"/>
<path d="M52.989 26.345C52.2878 5.16344 34.076 2.97005 34.076 2.97005C34.076 2.97005 31.5808 1.98331 27.5522 2.00021C8.35361 2.08076 1.55302 28.3144 11.6586 45.334C20.7657 60.672 53.6901 47.5265 52.989 26.345Z" fill="#F0B60A"/>
<path d="M6.5 25C6.5 25 11.5 2 32 3.5" stroke="#F49A05" stroke-width="4" stroke-linecap="round"/>
<path d="M36.9492 6C36.9492 6 57.6051 16.1412 52.2159 35.6288" stroke="white" stroke-width="4" stroke-linecap="round"/>
<path d="M40.3223 40.7822C40.3223 40.7822 49.2019 34.7057 46.3921 27" stroke="black" stroke-width="2" stroke-linecap="round"/>
<path d="M54.9876 26.8139C54.449 11.5205 41.6027 1.9448 27.5441 2.00024C16.8126 2.04256 9.29927 9.99896 6.07062 19.1237C2.85671 28.2068 3.58645 39.259 10.2203 46.1238C17.1111 53.2546 28.6038 53.5931 37.9103 49.8739C47.2665 46.1349 55.3784 37.912 54.9876 26.8139Z" stroke="black" stroke-width="4"/>
</svg>
