<svg width="60" height="59" viewBox="0 0 60 59" fill="none" xmlns="http://www.w3.org/2000/svg">
<path d="M27.1735 0.0124689C4.8692 0.805003 1.02128 21.3904 1.02128 21.3904C1.02128 21.3904 0.0488466 24.0299 0.00158402 28.3248C-0.241872 50.4485 27.633 58.2004 45.6308 46.7293C61.7817 36.4354 49.4778 -0.780065 27.1735 0.0124689Z" fill="#D7D9D6"/>
<path d="M59.9882 33.345C59.2414 12.1634 39.8418 9.97005 39.8418 9.97005C39.8418 9.97005 37.1839 8.98331 32.8925 9.00021C12.4419 9.08076 5.19778 35.3144 15.9624 52.334C25.6634 67.672 60.7351 54.5265 59.9882 33.345Z" fill="white"/>
<path d="M30.5846 4.01127C11.2263 4.72767 7.88656 23.3354 7.88656 23.3354C7.88656 23.3354 6.98475 25.8848 7.0002 30.0011C7.07381 49.617 31.0494 56.5654 46.6041 46.2401C60.6218 36.9351 49.943 3.29487 30.5846 4.01127Z" fill="#FAFAF8"/>
<path d="M22 50C1.271 39.375 9.69225 16 9.69225 16" stroke="#D7D9D6" stroke-width="4" stroke-linecap="round"/>
<path d="M35.7804 4.28532C52.7321 14.4561 53.4102 28.2593 53.4102 28.2593" stroke="#D7D9D6" stroke-width="4" stroke-linecap="round"/>
<path d="M44.0001 18.2142C47.5 22.4999 47.9795 26.7856 47.9795 26.7856" stroke="black" stroke-width="2" stroke-linecap="round"/>
<path d="M48.2911 30.4594C48.5 32.6787 47 35.3573 47 35.3573" stroke="black" stroke-width="2" stroke-linecap="round"/>
<path d="M5.97302 22.708C5.96336 22.7532 5.95504 22.7932 5.94801 22.8277C5.9458 22.8346 5.94353 22.8417 5.94121 22.8491C5.90966 22.9487 5.86768 23.0871 5.81893 23.2625C5.72147 23.6132 5.59676 24.1121 5.47421 24.7437C5.22923 26.0061 4.99193 27.8034 5.00021 30.0086C5.04068 40.7916 11.7148 48.0922 20.3115 51.2275C28.8354 54.3362 39.3855 53.4324 47.7102 47.9064C51.8151 45.1815 53.9896 40.748 54.7149 35.9122C55.4393 31.0826 54.7536 25.6956 52.997 20.7038C49.5396 10.8789 41.4884 1.60638 30.5107 2.01264C20.0759 2.3988 13.8643 7.65736 10.3273 12.8101C8.57579 15.3618 7.48134 17.8788 6.82351 19.755C6.49365 20.6958 6.27089 21.4832 6.129 22.0438C6.058 22.3243 6.00708 22.5487 5.97302 22.708Z" stroke="black" stroke-width="4"/>
</svg>
