<svg width="59" height="54" viewBox="0 0 59 54" fill="none" xmlns="http://www.w3.org/2000/svg">
<path d="M58.9878 23.8843C58.2104 3.97363 38.019 1.91185 38.019 1.91185C38.019 1.91185 35.2527 0.984314 30.7861 1.0002C9.50074 1.07592 1.96096 25.7355 13.165 41.734C23.2619 56.1517 59.7651 43.7949 58.9878 23.8843Z" fill="white"/>
<path d="M27.1734 4.01186C4.86918 4.76579 1.02127 24.3485 1.02127 24.3485C1.02127 24.3485 0.0488464 26.8594 0.00158402 30.9451C-0.241871 51.9912 27.6329 59.3655 45.6306 48.4532C61.7815 38.6606 49.4776 3.25793 27.1734 4.01186Z" fill="#F49A05"/>
<path d="M30.5456 4.01068C-5 4.01068 9.36827 67.1963 46.817 44.013C61.0551 35.1986 50.2084 3.33205 30.5456 4.01068Z" fill="#F0B60A"/>
<path d="M15.0135 15.2088C17.99 10.8054 21.7358 9.32275 21.7358 9.32275" stroke="black" stroke-width="2" stroke-linecap="round"/>
<path d="M24.9714 8.14824C26.9212 7.41853 30.7209 7.23215 30.7209 7.23215" stroke="black" stroke-width="2" stroke-linecap="round"/>
<path d="M36.2322 6.00008C51.8142 14.7258 52.4375 26.5679 52.4375 26.5679" stroke="#FBFBFB" stroke-width="4" stroke-linecap="round"/>
<path d="M5.58433 21.6708C5.57551 21.7093 5.56775 21.7439 5.56103 21.7745C5.55995 21.7777 5.55886 21.7809 5.55776 21.7841C5.52494 21.8807 5.48153 22.0143 5.43126 22.183C5.33074 22.5203 5.20255 22.9987 5.07673 23.6034C4.82523 24.8122 4.58207 26.5308 4.59055 28.6382C4.63221 38.9903 11.4989 45.9041 20.1632 48.851C28.7741 51.7797 39.4378 50.9336 47.8699 45.7135C52.0356 43.1346 54.2743 38.91 55.0212 34.2662C55.7647 29.6435 55.0594 24.4999 53.2656 19.7459C49.7199 10.3492 41.518 1.6308 30.4768 2.01187C19.9472 2.37528 13.6475 7.3229 10.0341 12.2322C8.24728 14.6598 7.12911 17.057 6.45602 18.8474C6.11861 19.7449 5.89045 20.4968 5.74481 21.0334C5.67193 21.302 5.61953 21.5173 5.58433 21.6708Z" stroke="black" stroke-width="4"/>
</svg>
