<svg width="149" height="145" viewBox="0 0 149 145" fill="none" xmlns="http://www.w3.org/2000/svg">
    <path d="M128.961 42.8155C128.136 40.2385 127.231 37.4695 125.822 34.6861C121.17 24.7151 110.329 21.2474 100.008 14.9867C98.0238 13.7407 86.2679 9.65445 84.2306 8.6937C140.846 6.77044 169.493 85.701 130.777 122.478C118.251 134.376 102.631 142.457 85.3982 143.858C65.5089 145.474 49.323 141.069 38.3445 127.366C40.2778 128.848 42.3506 130.197 44.562 131.412C54.7233 137.29 78.5432 135.526 92.1939 133.658C113.138 133.006 105.907 130.569 115.494 122.53C125.24 114.874 131.962 105.332 135.791 93.6249C139.621 81.9174 132.157 54.0674 128.961 42.8155Z"
          fill="#F0B60A"/>
    <path d="M138.901 68.4671C139.14 71.8307 138.901 74.9701 138.664 77.8852C137.237 90.4427 132.245 101.879 123.925 111.969C115.605 122.061 105.384 127.816 93.0226 131.403C80.6615 135.439 67.5872 136.411 53.5621 132.6C39.7746 128.788 29.0775 121.836 21.7083 111.746C14.3392 102.103 10.7734 90.8911 11.0111 78.3336C11.2489 64.655 13.0493 50.4327 22.0825 38.0994C26.3614 32.2692 31.1156 27.5602 36.3454 23.9724C41.3374 20.6087 47.5179 17.4694 54.4116 15.0027C69.3877 9.84519 86.3666 9.94041 99.4413 13.7525C110.852 17.1161 120.122 24.2918 127.253 34.831C134.623 45.3704 138.426 56.5823 138.901 68.4671ZM130.212 83.8545C135.263 58.5366 131.123 23.9724 83.8616 17.8567C58.1878 14.5344 31.8287 32.8214 23.9842 46.5C16.615 59.9544 14.3773 80.6244 19.3693 94.7516C21.9841 101.927 29.0762 109.991 38.062 114.615C51.626 121.595 60.1677 130.838 75.9847 128.486C99.4413 124.998 124.822 110.867 130.212 83.8545Z"
          fill="white"/>
    <path d="M143.407 63.3355C143.654 66.7455 144.23 73.6256 143.983 76.5809C142.505 89.3116 137.331 107.376 128.708 117.606C120.085 127.836 109.491 133.671 96.6796 137.308C83.8681 141.4 61.8497 140.537 47.3136 136.672C33.0239 132.807 21.937 121.138 14.2994 110.908C6.66183 101.133 5.78883 86.9932 6.03521 74.2626C6.28158 60.3952 8.14761 45.9766 17.5098 33.4733C21.9446 27.5626 26.8721 22.7886 32.2923 19.1513C37.4661 15.7413 43.8719 12.5586 51.0167 10.0579C66.5383 4.82925 84.1358 4.92579 97.6864 8.79047C109.512 12.2005 121.121 19.4752 128.512 30.1598C136.15 40.8445 142.914 51.2869 143.407 63.3355ZM135.223 82.6326C142.309 55.868 130.523 19.1513 81.5395 12.9512C54.9304 9.58318 27.6112 28.1224 19.4808 41.9898C11.8432 55.6298 9.52391 76.5849 14.6978 90.9069C17.4079 98.1816 21.8092 106.717 29.2798 113.916C43.3379 127.463 62.6278 136.735 79.0209 134.35C103.332 130.814 126.435 115.826 135.223 82.6326Z"
          fill="black"/>
    <path d="M6.68988 41.0136C6.68988 41.0136 25.0461 -7.97885 81.5828 1.12893C92.2233 2.84307 101.405 6.71048 109 13.5998C105.569 11.5213 101.896 10.8748 97.9787 9.67762C84.4296 5.58174 66.834 5.47942 51.3142 11.0209C30.2924 18.8195 6.68988 41.0136 6.33772 79.0666C6.09137 92.5589 10.7866 104.606 18.4233 114.966C26.06 125.808 36.1457 132.276 50.4338 136.372C51.2182 136.594 51.9998 137.803 52.7786 138C34.0842 137.678 16.5596 127.104 8.54173 109.108C-9.52985 68.5454 6.68988 41.0136 6.68988 41.0136Z"
          fill="#F49A05"/>
</svg>

