<svg viewBox="0 0 359 370" fill="none" xmlns="http://www.w3.org/2000/svg">
<path d="M350.732 35.724C362.986 12.6786 314.486 -6.32114 302.986 17.6785C291.486 41.6782 301.986 24.179 220.986 35.724" stroke="white" stroke-width="8" stroke-linecap="round"/>
<path fill-rule="evenodd" clip-rule="evenodd" d="M331.609 308.947C333.22 304.526 333.431 299.663 333.58 294.94C334.24 274.624 334.619 254.299 334.715 233.973C334.883 197.536 334.126 161.1 332.463 124.697C331.644 106.688 330.597 88.6889 329.322 70.7038C329.247 69.6378 329.225 68.4377 329.201 67.1666C329.164 65.1528 329.123 62.9608 328.864 60.8409L343.858 48.5666C351.549 43.6857 356.415 34.8199 355.957 25.995C354.24 -7.45238 293.448 -2.63813 299.29 30.7254C299.36 31.1275 299.449 31.521 299.536 31.906C299.052 29.7796 279.149 30.2462 271.475 30.4261C270.193 30.4561 269.252 30.4782 268.8 30.4788C257.84 30.4931 246.88 30.5457 235.921 30.5984C230.396 30.6249 224.87 30.6514 219.346 30.673C186.851 30.673 154.349 30.9956 121.869 31.3179C116.687 31.3693 111.505 31.4208 106.324 31.4709C98.3393 31.545 90.3523 31.6214 82.3655 31.6979C75.0553 31.7678 67.7452 31.8378 60.437 31.906C60.5244 31.521 60.6125 31.1275 60.6833 30.7254C66.5258 -2.63813 5.73218 -7.45238 4.01599 25.995C3.55869 34.8199 8.42475 43.6857 16.1152 48.5666L31.1089 60.8409C30.8494 62.9636 30.8089 65.1587 30.7716 67.1746C30.7482 68.4428 30.726 69.64 30.6516 70.7038C29.3757 88.6888 28.3285 106.688 27.51 124.697C25.8443 161.1 25.0932 197.536 25.2574 233.973C25.3538 254.301 25.732 274.62 26.3927 294.94C26.5419 299.663 26.7536 304.526 28.3636 308.947L16.1152 319.789C8.42475 324.679 3.55869 333.545 4.01599 342.362C5.73218 375.809 66.5258 370.995 60.6833 337.64C60.6344 337.321 60.5632 337.008 60.4923 336.696C60.4737 336.614 60.4552 336.532 60.437 336.451C68.0868 336.526 75.7387 336.599 83.3907 336.673C91.0358 336.746 98.681 336.819 106.324 336.894C170.725 337.537 235.139 337.086 299.536 336.451C299.518 336.532 299.5 336.614 299.481 336.695C299.41 337.008 299.339 337.321 299.29 337.64C293.448 370.995 354.24 375.809 355.957 342.362C356.415 333.545 351.549 324.679 343.858 319.789L331.609 308.947ZM137.14 320.174C156.472 320.208 175.805 320.046 195.133 319.689C208.116 319.449 221.096 319.122 234.073 318.706C242.445 318.438 250.807 317.945 259.17 317.452C268.24 316.917 277.311 316.383 286.396 316.134C289.049 316.062 291.745 316.086 294.452 316.111C300.069 316.162 305.734 316.213 311.167 315.4C313.819 315.003 317.112 314.073 316.983 311.038C316.917 309.513 316.776 307.966 316.634 306.41C316.472 304.629 316.309 302.837 316.257 301.056L311.531 137.777C311.289 129.418 311.046 121.06 310.803 112.701C310.372 97.8886 309.941 83.0759 309.516 68.2625L309.515 68.2285C309.431 65.3233 309.347 62.4134 309.436 59.5067C309.453 58.9729 309.497 58.4558 309.541 57.9516C309.692 56.182 309.83 54.572 308.715 52.9655C306.507 49.7846 302.616 49.6881 299.024 49.599C298.724 49.5915 298.427 49.5842 298.133 49.5751C295.542 49.4947 292.947 49.4829 290.351 49.4711C288.037 49.4605 285.722 49.45 283.409 49.3908C280.457 49.3155 277.503 49.1933 274.549 49.0711C270.308 48.8958 266.067 48.7204 261.828 48.6834C245.688 48.5434 229.548 48.2311 213.412 47.8424C179.956 47.0361 146.491 46.9395 113.033 47.6903C110.082 47.7561 107.123 48 104.171 48.2434C102.677 48.3665 101.186 48.4895 99.6971 48.5893C88.6455 49.328 77.5717 50.0121 66.4928 50.132C65.5882 50.1417 64.6116 50.0984 63.6016 50.0535C59.3473 49.8647 54.5025 49.6496 51.9665 53.2657C49.9458 56.1468 50.334 60.1959 50.6903 63.9123C50.8383 65.4558 50.9807 66.942 50.9429 68.2633C50.3607 88.5412 49.771 108.819 49.1814 129.097C48.8717 139.747 48.562 150.397 48.2534 161.048C47.3522 192.13 46.4519 223.212 45.5524 254.294L44.0033 307.909C43.9048 311.311 44.1084 315.85 48.1616 316.939C49.6425 317.337 51.2109 317.241 52.7468 317.148L52.8635 317.14C63.575 316.483 74.1552 317.049 84.7956 317.619C87.4894 317.764 90.187 317.908 92.8916 318.033C98.012 318.269 103.145 318.598 108.283 318.926C117.903 319.541 127.539 320.158 137.14 320.174Z" fill="#F0B60A"/>
<path d="M331.174 307C331.174 307 332.498 189.62 331.175 159.205C329.859 128.94 327.225 68.4125 327.225 68.4125C327.225 68.4125 335.39 50.5471 336.185 68.0126C337.218 90.6854 338.251 113.357 339.284 136.029L337.533 310.5L331.174 307Z" fill="#F49A05"/>
<path d="M48.0524 9.93404C36.8815 -0.780092 -3.91091 8.52246 9.08849 37.3553" stroke="white" stroke-width="4" stroke-linecap="round"/>
<path d="M351.987 17.1789C341.288 1.34496 300.672 -3.69836 299.25 30.5502" stroke="white" stroke-width="6" stroke-linecap="round"/>
<path d="M332.486 78.1787C332.486 78.1787 327.986 61.6787 348.538 43.1609C355.486 36.1921 354.486 24.1784 354.486 24.1784" stroke="#F49A05" stroke-width="7" stroke-linecap="round"/>
<path d="M8.55849 351.367C13.1131 369.422 58.418 376.992 60.3521 337.91" stroke="#F49A05" stroke-width="7" stroke-linecap="round"/>
<path d="M29.1878 312.285C20.9863 317.179 2.98636 328.179 4.48622 343.179" stroke="white" stroke-width="6" stroke-linecap="round"/>
<path d="M301.436 337.626C301.437 342.679 302.906 357.764 313.986 360.679" stroke="white" stroke-width="6" stroke-linecap="round"/>
<path d="M29.0567 323.878C34.5049 325.527 39.387 329.621 41.5479 334.35C43.7091 339.08 43.0782 344.292 39.9346 347.686C37.9916 349.782 34.8053 351.22 31.4126 350.367C28.3272 349.592 25.7612 347.045 24.6097 344.375C23.7973 342.488 23.5885 340.448 24.3317 338.793C25.0749 337.139 26.8502 335.938 29.0032 335.939C31.156 335.942 33.5832 337.29 34.4526 339.166" stroke="white" stroke-width="4" stroke-miterlimit="10" stroke-linecap="round" stroke-linejoin="round"/>
<path d="M28.5818 324.792C34.3084 326.484 39.398 330.82 41.6037 335.887C43.8097 340.954 43.0597 346.586 39.6855 350.296C37.6 352.589 34.2122 354.191 30.6434 353.326C27.3978 352.539 24.7291 349.834 23.5561 346.971C22.7286 344.95 22.5409 342.753 23.3524 340.956C24.1638 339.159 26.0577 337.835 28.3313 337.802C30.6045 337.77 33.1459 339.186 34.0338 341.195" stroke="black" stroke-width="4" stroke-miterlimit="10" stroke-linecap="round" stroke-linejoin="round"/>
<path d="M331.609 308.947C341.879 318.037 356.764 326.825 355.956 342.362C354.217 376.254 291.976 370.494 299.536 336.451C235.139 337.086 170.725 337.537 106.324 336.894C91.0306 336.744 75.7295 336.601 60.4368 336.451C67.9968 370.495 5.7548 376.254 4.01577 342.362C3.20989 326.825 18.0937 318.038 28.3633 308.947C26.7534 304.527 26.5417 299.663 26.3925 294.94C23.9418 219.57 25.3073 146.037 30.6513 70.7039C30.8442 67.9491 30.686 64.299 31.1086 60.841L16.115 48.5667C8.42453 43.6858 3.55847 34.82 4.01577 25.9951C5.75728 -7.94564 68.1487 -2.06268 60.4368 31.9061C75.7295 31.7635 91.0306 31.6129 106.324 31.471C143.978 31.1068 219.345 30.6732 219.345 30.6732C219.345 30.6732 252.315 30.5004 268.8 30.4789C271.955 30.4746 292.033 30.4789 299.536 31.9061C291.824 -2.06226 354.215 -7.94583 355.956 25.9951C356.414 34.82 351.548 43.6858 343.858 48.5667C343.858 48.5667 329.986 58.6788 328.864 60.841C327.742 63.0032 329.128 67.9491 329.322 70.7039C330.597 88.689 331.644 106.688 332.463 124.697C334.126 161.1 335.405 191.295 334.715 233.973C334.241 263.274 334.715 287.679 331.609 308.947Z" stroke="black" stroke-width="5" stroke-miterlimit="10" stroke-linecap="round" stroke-linejoin="round"/>
<path d="M264.407 323.906C255.274 324.104 246.139 324.195 237.004 324.176C230.044 324.162 223.045 323.362 216.095 322.984C209.769 322.64 203.524 322.028 197.181 322.487C196.438 322.54 195.677 322.602 194.959 322.375C193.044 321.769 192.994 320.347 192.994 320.347L315.986 316.179L315.078 163.513C318.021 171.095 318.261 175.976 318.456 183.917C318.771 196.819 321.091 235.72 321.408 248.622C321.408 248.622 323.517 264.653 324.525 281.076C325.533 297.5 321.641 313.531 321.641 313.531C321.687 315.39 321.918 317.268 321.984 319.089C322.045 320.779 320.489 321.297 319.236 321.518C315.432 322.189 311.387 321.803 307.531 321.927C299.28 322.192 291.053 323.047 282.807 323.359C276.675 323.59 270.542 323.772 264.407 323.906Z" fill="#F49A05"/>
<path d="M100.569 43.3612C109.703 43.2281 118.839 43.1674 127.974 43.18C134.934 43.1896 141.934 43.7258 148.884 43.9793C155.21 44.21 161.456 44.6199 167.799 44.3124C168.543 44.2766 169.304 44.2352 170.021 44.3875C171.937 44.7939 171.986 47.7578 171.986 47.7578L51.896 48.8761L43.9867 207.075C43.9867 207.075 45.8852 229.26 43.9867 228.679C41.3893 227.883 40.4863 211.679 40.9863 206.07C40.9863 190.679 42.9209 150.965 42.5648 141.256L44.5648 58.6784C44.4626 55.8952 43.0767 50.6784 46.9863 47.1784C50.896 43.6784 53.5868 44.7711 57.4426 44.6879C65.6941 44.5097 73.9214 43.9366 82.1678 43.7279C88.3004 43.5729 94.4343 43.4507 100.569 43.3612Z" fill="white"/>
<path d="M26.7608 68.2025L22.608 150.933C26.09 315.974 28.7074 117.897 29.9863 58.3821L21.9863 55.1787C24.5801 58.6852 26.7018 65.4142 26.7608 68.2025Z" fill="black"/>
<path d="M334.405 66.9466L336.52 128.995C333.909 252.775 330.946 104.217 329.986 59.5812L337.986 56.1787C336.041 58.8086 334.45 64.8553 334.405 66.9466Z" fill="black"/>
<path d="M194.794 321.684C160.185 322.322 125.976 321.605 91.429 320.009C77.5803 319.37 59.4711 322.467 46.2075 318.904C42.1097 317.803 41.9039 313.214 42.0035 309.774L43.5696 255.57C44.479 224.146 45.3892 192.723 46.3003 161.299C47.2064 130.03 48.1216 98.7627 49.0193 67.495C49.1498 62.9429 47.1629 56.4551 50.0542 52.3326C53.2266 47.8089 59.9731 49.2157 64.7401 49.1644C80.4677 48.9942 96.0951 47.0457 111.791 46.696C145.617 45.9369 179.45 46.0345 213.274 46.8497C229.587 47.2427 245.904 47.5584 262.221 47.6999C269.493 47.7634 276.77 48.2296 284.04 48.4151C289 48.542 293.971 48.4476 298.926 48.6014C302.791 48.721 307.206 48.5453 309.624 52.0291C311.072 54.116 310.43 56.2086 310.354 58.6421C310.262 61.5923 310.349 64.5457 310.434 67.4942C311.106 90.9212 311.793 114.347 312.471 137.773L317.249 300.845C317.431 307.127 318.373 316.11 310.103 317.347C301.963 318.566 295.309 317.865 287.06 318.09C269.406 318.572 251.805 320.125 234.162 320.69C221.042 321.11 207.919 321.441 194.794 321.684Z" stroke="black" stroke-width="4" stroke-miterlimit="10" stroke-linecap="round" stroke-linejoin="round"/>
<path d="M53.4863 315.717C61.4863 316.525 156.986 320.967 156.986 320.967L123.486 322.179L42.9863 318.14L42.9863 301.179C42.9863 301.179 45.4863 314.909 53.4863 315.717Z" fill="black"/>
<path d="M298.486 51.7941C290.486 51.2172 194.986 48.0441 194.986 48.0441L228.486 47.1787L308.986 50.0633L308.986 62.1787C308.986 62.1787 306.486 52.371 298.486 51.7941Z" fill="black"/>
<path d="M52.4479 60.6787C51.6402 68.6787 47.1979 164.179 47.1979 164.179L45.9863 130.679L50.0248 50.1787H66.9863C66.9863 50.1787 53.2556 52.6787 52.4479 60.6787Z" fill="black"/>
<path d="M286.963 342.07L203.986 341.179C38.9454 339.002 237.268 338.978 296.783 338.179L299.986 343.179C296.48 341.558 289.751 342.107 286.963 342.07Z" fill="black"/>
<path d="M182.981 28.8734L164.013 31.3379L61.7305 33.1787L59.9864 30.3266C62.2493 27.4744 58.1869 16.1042 59.9864 16.1787C59.9864 16.1787 64.9864 29.6787 67.4864 29.1787C69.9864 28.6787 153.412 28.22 163.363 28.22C166.99 27.8552 182.981 28.8734 182.981 28.8734Z" fill="black"/>
<path d="M19.9863 39.849C24.2493 40.8503 28.9878 39.5282 32.1096 36.4655C35.2318 33.4032 36.6354 28.7008 35.7012 24.4345C35.1237 21.7981 33.4741 19.1729 30.8806 18.4012C28.5221 17.6994 25.8929 18.7294 24.1764 20.4894C22.9647 21.7324 22.1072 23.3725 22.0287 25.1043C21.9502 26.8366 22.7288 28.6392 24.1853 29.5864C25.6417 30.5335 27.7565 30.4585 29.0031 29.2494" stroke="white" stroke-width="4" stroke-miterlimit="10" stroke-linecap="round" stroke-linejoin="round"/>
<path d="M19.9863 39.819C25.3151 40.9113 31.2381 39.469 35.1404 36.1279C39.0432 32.7873 40.7976 27.6574 39.6299 23.0032C38.908 20.1272 36.846 17.2632 33.6042 16.4214C30.656 15.6558 27.3695 16.7794 25.224 18.6995C23.7093 20.0554 22.6374 21.8447 22.5393 23.7339C22.4412 25.6237 23.4144 27.5902 25.235 28.6234C27.0555 29.6567 29.699 29.5749 31.2573 28.2558" stroke="black" stroke-width="4" stroke-miterlimit="10" stroke-linecap="round" stroke-linejoin="round"/>
<path d="M337.986 42.849C333.19 43.8503 327.86 42.5282 324.348 39.4655C320.835 36.4032 319.256 31.7008 320.307 27.4345C320.957 24.7981 322.813 22.1729 325.73 21.4012C328.384 20.6994 331.341 21.7294 333.272 23.4894C334.636 24.7324 335.6 26.3725 335.689 28.1043C335.777 29.8366 334.901 31.6392 333.263 32.5864C331.624 33.5335 329.245 33.4585 327.842 32.2494" stroke="white" stroke-width="4" stroke-miterlimit="10" stroke-linecap="round" stroke-linejoin="round"/>
<path d="M338.986 42.804C333.125 43.9419 326.609 42.4395 322.317 38.9591C318.024 35.4793 316.094 30.1356 317.378 25.2875C318.172 22.2917 320.441 19.3084 324.007 18.4315C327.25 17.634 330.865 18.8045 333.225 20.8045C334.891 22.217 336.07 24.0808 336.178 26.0487C336.286 28.0172 335.215 30.0657 333.213 31.142C331.21 32.2183 328.302 32.1331 326.588 30.759" stroke="black" stroke-width="4" stroke-miterlimit="10" stroke-linecap="round" stroke-linejoin="round"/>
<path d="M336.345 325.99C331.442 325.426 326.31 327.523 323.214 331.353C320.117 335.185 319.159 340.625 320.76 345.273C321.75 348.145 323.939 350.865 326.943 351.39C329.674 351.867 332.484 350.372 334.176 348.181C335.371 346.632 336.117 344.687 335.979 342.74C335.841 340.793 334.735 338.88 332.981 338.011C331.227 337.142 328.87 337.501 327.632 339.016" stroke="white" stroke-width="4" stroke-miterlimit="10" stroke-linecap="round" stroke-linejoin="round"/>
<path d="M338.429 325.396C332.23 324.828 325.699 327.292 321.721 331.699C317.743 336.107 316.446 342.314 318.404 347.58C319.614 350.834 322.344 353.897 326.14 354.449C329.592 354.95 333.171 353.206 335.347 350.687C336.883 348.907 337.858 346.681 337.713 344.467C337.568 342.253 336.196 340.092 333.988 339.129C331.78 338.167 328.79 338.612 327.199 340.354" stroke="black" stroke-width="4" stroke-miterlimit="10" stroke-linecap="round" stroke-linejoin="round"/>
</svg>
