<svg width="1920" height="1080" viewBox="0 0 1920 1080" fill="none" xmlns="http://www.w3.org/2000/svg">
<rect width="1920" height="1080" fill="#54B530"/>
<path d="M656.213 953.787C653.374 961.364 639.165 968.904 632.415 971.727C638.338 984.746 636.423 998.04 636.423 998.04C642.242 987.961 654.015 984.198 658.335 986.692C652.189 977.383 659.761 944.316 656.213 953.787Z" fill="#2A6F10"/>
<path d="M1471.66 158.754C1468.68 165.533 1473.18 179.548 1475.8 185.708C1463.61 190.459 1456.38 200.396 1456.38 200.396C1459 190.073 1453.68 180.09 1449.26 178.967C1459.23 176.79 1475.38 150.281 1471.66 158.754Z" fill="#2A6F10"/>
<path d="M1343.25 762.2C1345.64 767.644 1342.03 778.899 1339.92 783.845C1349.72 787.662 1355.53 795.641 1355.53 795.641C1353.42 787.351 1357.69 779.334 1361.24 778.432C1353.23 776.684 1340.26 755.395 1343.25 762.2Z" fill="#2A6F10"/>
<path d="M318.633 251.658C321.024 257.101 317.41 268.356 315.305 273.303C325.099 277.119 330.907 285.099 330.907 285.099C328.802 276.809 333.069 268.792 336.622 267.89C328.614 266.141 315.644 244.853 318.633 251.658Z" fill="#2A6F10"/>
<path d="M185.5 840.989C187.46 846.956 182.516 858.421 179.8 863.408C189.708 868.416 195.003 877.396 195.003 877.396C193.633 868.466 198.934 860.472 202.761 859.885C194.52 857.232 183.049 833.531 185.5 840.989Z" fill="#2A6F10"/>
<path d="M1647.28 731.288C1649.88 737.005 1646.22 748.941 1644.07 754.195C1654.47 758.09 1660.71 766.438 1660.71 766.438C1658.37 757.711 1662.77 749.185 1666.51 748.183C1658.03 746.447 1644.03 724.142 1647.28 731.288Z" fill="#2A6F10"/>
<path d="M1826.72 360.094C1823.59 364.913 1825.28 376.212 1826.52 381.259C1816.58 383.37 1809.8 390.075 1809.8 390.075C1813.1 382.496 1810.28 374.183 1807.03 372.768C1814.94 372.351 1830.64 354.07 1826.72 360.094Z" fill="#2A6F10"/>
<path d="M1064.28 908.449C1066.13 914.203 1061.31 925.213 1058.67 929.999C1068.18 934.874 1073.22 943.548 1073.22 943.548C1071.95 934.944 1077.1 927.277 1080.79 926.733C1072.87 924.134 1061.96 901.255 1064.28 908.449Z" fill="#2A6F10"/>
<path d="M1560.35 116.989C1560.88 122.495 1568.93 129.989 1572.89 133.048C1566.68 140.598 1565.59 149.716 1565.59 149.716C1563.53 142.03 1556.42 137.461 1553.13 138.344C1558.83 133.284 1559.68 110.106 1560.35 116.989Z" fill="#2A6F10"/>
<path d="M218.026 462.659C217.597 467.081 211.132 473.099 207.954 475.556C212.945 481.619 213.819 488.942 213.819 488.942C215.473 482.769 221.182 479.1 223.827 479.809C219.245 475.746 218.561 457.132 218.026 462.659Z" fill="#2A6F10"/>
<path d="M46.7848 599.065C49.5603 606.665 43.6782 621.637 40.3903 628.173C53.3601 634.204 60.5569 645.545 60.5569 645.545C58.4161 634.104 64.906 623.586 69.8091 622.668C59.0854 619.6 43.3155 589.565 46.7848 599.065Z" fill="#2A6F10"/>
<path d="M595.291 100.956C593.66 108.881 580.791 118.532 574.56 122.366C582.429 134.311 582.596 147.741 582.596 147.741C586.784 136.881 597.831 131.34 602.485 133.135C594.971 124.891 597.329 91.0492 595.291 100.956Z" fill="#2A6F10"/>
<ellipse cx="101" cy="147.5" rx="10" ry="9.5" fill="#F5FFEA"/>
<ellipse cx="1200.5" cy="67" rx="9.5" ry="10" fill="#F5FFEA"/>
<ellipse cx="1322" cy="995.5" rx="10" ry="9.5" fill="#F5FFEA"/>
<circle cx="341" cy="748" r="10" fill="#F5FFEA"/>
<circle cx="1514" cy="869" r="5" fill="#F5FFEA"/>
<circle cx="252" cy="1000" r="5" fill="#F5FFEA"/>
<ellipse cx="823" cy="1014.5" rx="10" ry="9.5" fill="#F5FFEA"/>
<ellipse cx="1787" cy="1014.5" rx="10" ry="9.5" fill="#F5FFEA"/>
</svg>
