<svg width="58" height="54" viewBox="0 0 58 54" fill="none" xmlns="http://www.w3.org/2000/svg">
<path d="M27.1734 0.0118615C4.86918 0.765791 1.02127 20.3485 1.02127 20.3485C1.02127 20.3485 0.0488464 22.8594 0.00158402 26.9451C-0.241871 47.9912 27.6329 55.3655 45.6306 44.4532C61.7815 34.6606 49.4776 -0.742068 27.1734 0.0118615Z" fill="#F49A05"/>
<path d="M32.1734 4.01186C9.86918 4.76579 6.02127 24.3485 6.02127 24.3485C6.02127 24.3485 5.04885 26.8594 5.00158 30.9451C4.75813 51.9912 32.6329 59.3655 50.6306 48.4532C66.7815 38.6606 54.4776 3.25793 32.1734 4.01186Z" fill="white"/>
<path d="M29.6099 4.01078C9.40989 4.69617 5.92499 22.4986 5.92499 22.4986C5.92499 22.4986 5.03394 24.8081 5.00084 28.5611C4.83267 47.6293 30.0366 54.3259 46.3259 44.412C60.9531 35.5097 49.81 3.32539 29.6099 4.01078Z" fill="#F0B60A"/>
<path d="M10.0555 15.9722C10.0555 15.9722 1.95298 36.54 21.8974 45.889" stroke="#FBFBFB" stroke-width="4" stroke-linecap="round"/>
<path d="M36.2322 6.00008C51.8142 14.7258 52.4375 26.5679 52.4375 26.5679" stroke="#FBFBFB" stroke-width="4" stroke-linecap="round"/>
<path d="M45.5817 27.1909C45.5817 27.1909 46.2056 21.5815 40.5962 17.8418" stroke="black" stroke-width="2" stroke-linecap="round"/>
<path d="M44.3008 34.5408C44.3008 34.5408 45.8792 33.3606 45.4873 32.1772" stroke="black" stroke-width="2" stroke-linecap="round"/>
<path d="M6.48028 22.2069C6.47289 22.2391 6.4663 22.2685 6.46048 22.2948C6.46044 22.295 6.4604 22.2951 6.46035 22.2952C6.42955 22.3859 6.38903 22.5106 6.34221 22.6677C6.24861 22.9818 6.12964 23.426 6.01299 23.9866C5.77983 25.1072 5.55485 26.6983 5.5627 28.6481C5.60134 38.2496 11.9746 44.655 19.9866 47.3801C27.9453 50.087 37.798 49.3055 45.5919 44.4805C49.4699 42.0797 51.5477 38.1496 52.2398 33.8464C52.9285 29.5644 52.2745 24.8077 50.6177 20.4166C47.3459 11.7458 39.7603 3.65735 29.5134 4.011C19.7781 4.347 13.9442 8.92487 10.5978 13.4713C8.94461 15.7174 7.91035 17.9349 7.28778 19.5909C6.97563 20.4212 6.76438 21.1172 6.62934 21.6148C6.56176 21.8639 6.51308 22.0639 6.48028 22.2069Z" stroke="black" stroke-width="4"/>
</svg>
