<svg width="57" height="54" viewBox="0 0 57 54" fill="none" xmlns="http://www.w3.org/2000/svg">
<path d="M55.6499 36.6644C59.7917 17.863 43.0382 11.4835 43.0382 11.4835C43.0382 11.4835 40.8986 10.0059 37.0786 9.03636C18.8745 4.41583 4.48037 26.8276 10.1912 44.2665C15.3378 59.9822 51.5081 55.4657 55.6499 36.6644Z" fill="white"/>
<path d="M43.1142 11.5987C33.5871 -5.13096 16.8776 1.36294 16.8776 1.36294C16.8776 1.36294 14.2994 1.70033 10.8145 3.54097C-5.79273 12.3125 -0.640679 36.5103 15.2856 45.6253C29.6381 53.8397 52.6413 28.3283 43.1142 11.5987Z" fill="#F49A05"/>
<path d="M49.8222 15.4195C40.2951 -1.31016 23.5856 5.18374 23.5856 5.18374C23.5856 5.18374 21.0074 5.52113 17.5225 7.36177C0.915278 16.1333 6.06733 40.3311 21.9936 49.4461C36.3461 57.6605 59.3493 32.1491 49.8222 15.4195Z" fill="#F0B60A"/>
<path d="M10.5004 24.0003C12.0001 16 18.5621 12.8134 18.5621 12.8134" stroke="black" stroke-width="2" stroke-linecap="round"/>
<path d="M30.3492 5.81681C47.3552 11.2698 50.3208 22.7515 50.3208 22.7515" stroke="#FBFBFB" stroke-width="4" stroke-linecap="round"/>
<path d="M47.0772 13.3283C47.0719 13.3215 47.0666 13.3148 47.0615 13.3082C47.0184 13.2298 46.9634 13.1322 46.8959 13.0173C46.7252 12.7267 46.4742 12.3246 46.1345 11.842C45.4556 10.8775 44.419 9.58616 42.9573 8.21911C35.7523 1.48046 26.6544 1.83075 19.2054 6.07379C11.8207 10.2802 5.81282 18.3934 4.20485 27.7419C3.40645 32.3836 5.00698 36.6659 7.84942 40.1319C10.6768 43.5796 14.7867 46.3043 19.2939 48.0047C28.1929 51.3617 39.5563 50.9836 46.1572 42.8808C52.4401 35.1684 52.7059 27.6978 51.3092 22.1584C50.6204 19.4266 49.5377 17.1927 48.6296 15.6419C48.1742 14.8641 47.7586 14.2512 47.451 13.8256C47.297 13.6126 47.1696 13.4459 47.0772 13.3283Z" stroke="black" stroke-width="4"/>
</svg>
