<svg width="61" height="59" viewBox="0 0 61 59" fill="none" xmlns="http://www.w3.org/2000/svg">
<path d="M27.6095 3.09181C9.17121 1.55766 4.8598 20.7188 4.8598 20.7188C4.8598 20.7188 3.67476 23.27 3.1559 27.5628C0.683284 48.0196 22.5038 58.0878 38.5829 49.1572C53.0732 41.1091 46.0479 4.62595 27.6095 3.09181Z" fill="#F49A05"/>
<path d="M59.8913 31.0841C63.7826 11.4133 37.9717 7.43516 37.9717 7.43516C37.9717 7.43516 35.095 6.45059 30.4617 6.50043C8.38198 6.73792 2.98638 33.5098 12.4932 50.7549C22 68 56 50.7549 59.8913 31.0841Z" fill="white"/>
<path d="M52.9362 34.8417C57.1576 16.8321 41.6635 10.6482 41.6635 10.6482C41.6635 10.6482 39.6974 9.22288 36.1552 8.27788C15.4999 2.76738 4 21 12.3002 40.9966C20.6004 60.9932 48.7148 52.8513 52.9362 34.8417Z" fill="#F0B60A"/>
<path d="M15.2177 14.913C31.293 -0.872325 48.1205 14.2303 48.1205 14.2303" stroke="#FBFBFB" stroke-width="6" stroke-linecap="round"/>
<path d="M27.0265 46.2185C23.4762 46.852 20.7031 44.1416 20.7031 44.1416" stroke="black" stroke-width="2" stroke-linecap="round"/>
<path d="M17.9848 41.3528C16.7627 40.9893 16.6957 38.9746 16.6957 38.9746" stroke="black" stroke-width="2" stroke-linecap="round"/>
<path d="M54.5148 28.2798C54.0299 14.2317 42.4617 5.04856 29.361 5.10128C19.5645 5.1407 13.027 11.6422 10.2443 19.8236C7.47978 27.9517 8.27813 38.015 13.2057 45.9747C15.6661 49.949 19.7004 51.9865 24.1095 52.5627C28.4913 53.1353 33.3492 52.2927 37.8248 50.435C46.6634 46.7664 54.8745 38.7013 54.5148 28.2798Z" stroke="black" stroke-width="4"/>
</svg>
