<svg width="61" height="56" viewBox="0 0 61 56" fill="none" xmlns="http://www.w3.org/2000/svg">
<path d="M60.9878 31.8843C60.2104 11.9736 40.019 9.91185 40.019 9.91185C40.019 9.91185 37.2527 8.98431 32.7861 9.0002C11.5007 9.07592 3.96096 33.7355 15.165 49.734C25.2619 64.1517 61.7651 51.7949 60.9878 31.8843Z" fill="white"/>
<path d="M27.1734 0.0118615C4.86918 0.765791 1.02127 20.3485 1.02127 20.3485C1.02127 20.3485 0.0488464 22.8594 0.00158402 26.9451C-0.241871 47.9912 27.6329 55.3655 45.6306 44.4532C61.7815 34.6606 49.4776 -0.742068 27.1734 0.0118615Z" fill="#F49A05"/>
<path d="M30.5456 4.01068C-5 4.01068 9.36827 67.1963 46.817 44.013C61.0551 35.1986 50.2084 3.33205 30.5456 4.01068Z" fill="#F0B60A"/>
<path d="M48.9971 30.6184C48.2424 35.8795 45.52 38.8491 45.52 38.8491" stroke="black" stroke-width="2" stroke-linecap="round"/>
<path d="M43.1219 41.3185C41.6864 42.8264 38.8125 43.317 38.8125 43.317" stroke="black" stroke-width="2" stroke-linecap="round"/>
<path d="M36.2322 6.00008C51.8142 14.7258 52.4375 26.5679 52.4375 26.5679" stroke="#FBFBFB" stroke-width="4" stroke-linecap="round"/>
<path d="M5.58433 21.6708C5.57551 21.7093 5.56775 21.7439 5.56103 21.7745C5.55995 21.7777 5.55886 21.7809 5.55776 21.7841C5.52494 21.8807 5.48153 22.0143 5.43126 22.183C5.33074 22.5203 5.20255 22.9987 5.07673 23.6034C4.82523 24.8122 4.58207 26.5308 4.59055 28.6382C4.63221 38.9903 11.4989 45.9041 20.1632 48.851C28.7741 51.7797 39.4378 50.9336 47.8699 45.7135C52.0356 43.1346 54.2743 38.91 55.0212 34.2662C55.7647 29.6435 55.0594 24.4999 53.2656 19.7459C49.7199 10.3492 41.518 1.6308 30.4768 2.01187C19.9472 2.37528 13.6475 7.3229 10.0341 12.2322C8.24728 14.6598 7.12911 17.057 6.45602 18.8474C6.11861 19.7449 5.89045 20.4968 5.74481 21.0334C5.67193 21.302 5.61953 21.5173 5.58433 21.6708Z" stroke="black" stroke-width="4"/>
</svg>
