<svg width="74" height="70" viewBox="0 0 74 70" fill="none" xmlns="http://www.w3.org/2000/svg">
<path d="M69.1068 31.4284C72.8073 31.1199 74.6692 26.935 72.2518 23.9921C75.1464 20.9227 73.128 15.8992 68.9347 15.7252C68.6922 12.6715 65.2107 11.1526 62.8403 13.0908C61.3538 10.6463 57.9115 10.3853 56.0965 12.6161C60.6967 5.09282 52.0753 -3.28489 44.8856 2.05501C38.0558 -2.98427 28.8398 3.38406 30.9208 11.6273C30.2011 6.86488 26.0078 3.78752 22.1195 4.38875C19.1388 4.84759 16.5962 7.42656 15.8921 10.8283C9.23441 8.61321 2.42024 13.1699 5.51048 20.2107C3.05394 21.4448 2.19309 23.7122 2.44371 26.397C2.5 27 3.63705 32.0329 6.88375 30.7434C1.5 31.5 -4.55822 42.2427 5.87035 46.0479C3.28081 48.785 2.91311 52.701 4.57167 55.0901C6.67616 58.12 12.1056 58.8161 15.7044 55.2483C11.9491 59.093 13.725 65.4139 19.483 65.311C21.7675 70.6351 28.9415 70.7142 29.982 64.5279C33.4634 67.7397 38.0871 64.5199 37.1639 60.1135C36.4676 64.4487 39.2684 68.602 43.4304 69.5434C47.702 70.5006 52.0753 67.7714 53.1314 63.3887C57.1683 62.6055 58.287 57.4713 54.9856 55.0031C58.5843 58.5472 64.2798 58.5472 67.6908 55.2404C70.8045 52.2263 71.3286 47.1317 68.7469 43.3265C75.5454 42.4405 75.8271 32.7258 69.1068 31.4284ZM37.2293 57.7944C35.2593 52.4736 25.2746 52.7163 19.6417 55.4297C19.1399 52.0424 15.4299 46.9374 12.0531 46.2722C8.50925 42.3851 5.87035 40.5426 11.5893 29.862C16.2793 26.8704 19.3222 24.82 20.1358 19.4801C32.5592 10.8283 44.02 11.7436 44.02 11.7436L54.4131 18.2324L63.6393 28.3485C63.6393 28.3485 65.9993 41 64.4993 43.3265C57.5591 54.0906 49.4993 57.7944 37.2293 57.7944Z" fill="black"/>
<path d="M68.2109 31.5205C71.7826 31.226 73.5797 27.2315 71.2464 24.4225C74.0403 21.4927 72.0921 16.6978 68.0448 16.5317C67.8107 13.617 64.4505 12.1672 62.1626 14.0172C60.7279 11.6839 57.413 11.4347 55.6536 13.5641C60.0936 6.38311 51.7723 -1.61343 44.833 3.48351C38.5732 -1.08486 29.9801 4.17066 31.1958 11.8198C29.2174 3.87617 18.6385 3.37781 16.8489 11.8576C10.4305 9.75087 3.84602 14.0852 6.82867 20.8131C4.45765 21.9911 3.28725 24.5584 3.86868 26.718C4.47276 28.9456 6.89663 30.5388 9.51684 30.2745C1.31643 32.6606 -2.35337 42.0315 7.18357 45.4672C4.68419 48.0799 4.32929 51.8176 5.9301 54.098C7.96133 56.9901 13.2017 57.6545 16.6752 54.249C13.0507 57.9188 14.7648 63.9521 20.3223 63.8539C22.5272 68.9358 29.4515 69.0113 30.4558 63.1064C32.9326 65.3641 36.5193 64.39 37.3499 61.1129C38.4221 69.8947 50.7379 70.4686 52.7993 62.019C56.3256 61.3394 57.6924 57.1335 55.1628 54.5284C58.6438 57.3903 63.7332 57.2317 66.8517 54.249C69.857 51.3721 70.363 46.5092 67.8711 42.8772C74.4254 42.0315 74.6972 32.7588 68.2109 31.5205ZM53.2826 52.9049C48.0421 49.0388 40.5213 50.33 37.146 56.3029C32.9099 52.316 26.9521 50.9115 21.387 53.3807C22.565 51.1531 20.6244 48.6915 18.1779 49.6051C20.1185 46.2827 15.8219 42.9602 13.0809 45.6409C13.8662 42.3486 12.5372 39.0262 9.84908 37.1384C13.0507 36.3606 13.6397 32.8872 11.6613 30.4406C16.9546 28.2962 21.0548 23.9241 22.5197 18.0872C26.1215 19.4917 29.9877 17.8909 31.6866 14.5986C34.5107 17.77 39.3736 18.0041 42.3336 14.6892C43.7683 18.8876 47.9062 21.3945 52.3387 20.4431C52.6785 25.5627 57.0052 29.3986 62.0568 29.2174C59.7764 32.1245 60.6372 36.4362 64.1183 38.0974C61.7472 39.298 61.3772 42.0768 62.9026 44.1307C58.2209 45.0745 54.604 48.5027 53.2826 52.9049Z" fill="white"/>
<path d="M37.0859 8.13517C36.6253 7.79537 36.9727 5.83211 38.211 5.06191C39.9931 3.94436 42.8021 5.80946 42.7039 6.34558C42.6435 6.65517 41.6241 6.37578 39.8194 6.98741C38.0525 7.58394 37.4333 8.3919 37.0859 8.13517Z" fill="#D7D9D6"/>
<path d="M10.0076 23.5393C9.01083 23.1769 8.58797 20.2622 9.93961 18.2611C11.0496 16.615 13.1941 15.8297 15.2933 16.3507C16.0257 14.3044 18.14 13.1113 20.2921 13.5946C21.8929 10.846 25.0416 12.1599 25.0643 13.0736C25.087 14.1081 21.5153 14.0552 17.8455 16.1167C12.5674 19.0993 11.397 24.0452 10.0076 23.5393Z" fill="#D7D9D6"/>
<path d="M56.8015 17.2117C56.8468 16.298 59.7464 15.037 61.2868 17.4987C63.0538 16.0564 65.5003 17.7931 64.7679 19.9376C66.3007 19.175 68.1356 19.7866 68.8756 21.176C69.676 22.6787 68.9813 24.7099 67.2673 25.4272C67.8713 26.5976 67.1238 26.9299 65.8854 26.5221C63.9599 25.8803 64.5262 22.9882 62.5479 20.6625C60.3203 18.0423 56.7411 18.3293 56.8015 17.2117Z" fill="#D7D9D6"/>
<path d="M65.825 47.3329C65.6362 47.2951 65.538 47.6424 64.8584 48.3749C64.0127 49.2886 63.5294 49.4321 63.5823 49.6888C63.6729 50.0965 65.0699 50.5118 65.825 49.8625C66.6858 49.1225 66.2176 47.4235 65.825 47.3329Z" fill="#D7D9D6"/>
<path d="M48.6389 54.7475C47.6119 53.932 46.1697 54.2189 45.5958 55.1477C45.1125 55.933 45.3013 57.0883 46.1319 57.7755C46.9927 60.9167 50.285 59.4594 49.847 56.6428C51.0703 55.7896 49.915 54.0377 48.6389 54.7475Z" fill="#D7D9D6"/>
<path d="M41.0499 58.8857C39.5775 59.1651 39.4265 60.8414 41.1632 60.8942C41.9032 60.9169 42.7414 60.3657 42.7187 59.7993C42.6885 59.2406 41.7899 58.7498 41.0499 58.8857Z" fill="#D7D9D6"/>
<path d="M21.6737 61.3023C21.1905 62.1178 24.898 65.3798 27.5031 63.8621C28.8698 63.0617 29.489 61.189 29.0284 60.7284C28.5829 60.2829 27.5107 61.4911 25.2378 61.6496C23.1311 61.7931 21.9154 60.9021 21.6737 61.3023Z" fill="#D7D9D6"/>
<path d="M50.3455 6.42865C48.4804 5.3715 45.9432 7.04783 46.0187 7.43293C46.0791 7.75008 47.8612 7.10069 49.5526 8.12763C51.1534 9.10171 51.4328 10.8309 51.7047 10.7327C52.052 10.6195 52.2408 7.50089 50.3455 6.42865Z" fill="#D7D9D6"/>
<path d="M10.8007 46.736C10.2948 46.6831 9.70584 47.0154 9.64543 47.4609C9.50951 48.435 11.4652 48.956 11.8126 48.0423C11.9938 47.5515 11.4652 46.8115 10.8007 46.736Z" fill="#D7D9D6"/>
<path d="M5.79397 36.2857C5.27295 35.9836 4.07233 36.3989 3.91376 37.2522C3.80805 37.8336 4.20825 38.5132 4.9256 38.7926C4.2007 39.7138 4.28376 40.9371 4.97091 41.5865C5.78642 42.3567 7.27397 42.1301 7.52315 41.5865C7.74213 41.1108 6.88131 40.7181 6.36784 39.3212C5.77131 37.675 6.38295 36.6255 5.79397 36.2857Z" fill="#D7D9D6"/>
</svg>
