<svg width="88" height="86" viewBox="0 0 88 86" fill="none" xmlns="http://www.w3.org/2000/svg">
<path d="M30.9992 7.20215C30.9843 5.4779 26.8148 3.57527 23.3663 3.91715C19.2043 4.32592 17.9558 7.02378 17.3166 7.76699C16.9896 7.7001 12.9391 6.99405 9.92162 10.0189C6.76296 13.1924 6.52514 17.399 6.5846 17.6517C2.72732 18.2835 2.03613 23.4339 5.63328 25.017C5.18736 26.6892 5.32856 27.1351 5.52922 27.2466C6.63661 27.856 10.204 18.6402 18.855 13.1033C25.3581 8.93384 31.0215 9.20883 30.9992 7.20215Z" fill="white"/>
<path d="M4.40699 39.9113C4.00565 39.8667 3.42593 40.7214 3.34418 41.5018C3.25499 42.4531 3.91645 43.2186 4.18401 43.5011C-1.20429 45.9388 -1.44955 53.3635 3.80496 56.1134C0.296998 57.3694 0.980755 62.4158 4.71169 62.6462C3.70835 68.1906 9.98852 68.094 11.3709 65.9684C12.731 63.88 8.56153 61.1003 6.31703 54.1439C3.93875 46.7192 5.50694 40.0303 4.40699 39.9113Z" fill="white"/>
<path d="M22.0658 76.3955C20.899 76.938 20.0592 78.5062 20.4308 79.7548C20.8173 81.0777 22.5564 82.0513 24.6151 81.7243C26.9264 86.0721 32.6715 86.8079 35.0349 82.0736C37.7997 84.5931 40.2746 81.8061 39.7617 80.5352C39.1746 79.0934 35.243 81.0183 30.1966 79.5913C25.6704 78.3204 24.1022 75.4442 22.0658 76.3955Z" fill="white"/>
<path d="M85.0011 58.9969C90.59 55.6896 86.6659 50.606 83.6856 50.7101C79.6797 50.8513 80.5046 60.7211 73.4292 67.9526C65.6998 75.853 54.953 74.0544 54.7969 77.54C54.678 80.2008 60.7797 84.333 64.9417 82.252C68.3754 80.5352 68.5686 75.5408 68.5761 75.2881C72.5151 77.3394 77.0859 74.5969 76.521 69.9816C83.2917 72.1964 88.9921 65.0318 85.0011 58.9969Z" fill="white"/>
<path d="M82.9496 29.9818C84.8522 27.8934 84.9488 24.7644 83.2171 22.5645C84.7333 19.5471 82.8678 16.1283 79.7315 15.5337C79.62 12.9845 77.0708 11.2677 74.6479 12.2264C74.1797 10.2421 72.1656 9.01576 70.1738 9.55088C69.5123 3.4045 63.0612 -0.0737353 57.5837 2.53494C49.4381 -2.34797 44.8896 3.49368 45.4694 5.22537C45.9896 6.77869 49.609 6.81585 51.1475 6.8976C60.7424 7.42528 70.2109 14.2183 74.0831 18.2465C82.1246 26.6002 81.6489 39.1828 82.957 38.9078C83.7076 38.7592 84.0718 33.6087 82.9496 29.9818Z" fill="white"/>
<path d="M82.9498 29.982C84.8524 27.8936 84.949 24.7646 83.2173 22.5647C84.7112 19.5844 82.9126 16.1359 79.7317 15.5339C79.6202 12.9921 77.071 11.2679 74.6481 12.2266C74.1799 10.2348 72.1583 9.01596 70.174 9.55107C69.5125 3.4047 63.0614 -0.0735389 57.5839 2.53514C54.6631 0.558192 50.8727 0.706833 49.0295 3.88035C52.1287 2.43109 55.8077 3.18173 58.0299 5.90932C60.2669 3.81346 63.8864 4.94315 64.5701 7.90114C66.8592 7.84168 68.9774 9.19433 69.8692 11.3496C72.2104 11.58 74.0238 13.5421 73.9049 15.9947C81.2627 21.3236 83.8862 30.0638 82.9647 38.9154C83.8491 36.0615 83.8863 32.9549 82.9498 29.982Z" fill="white"/>
<path d="M30.9995 7.20235C27.4841 3.4194 22.735 3.04779 19.606 5.25514C18.2311 6.22131 17.6291 7.40302 17.3095 7.77463C16.9825 7.70774 12.932 7.00169 9.91454 10.0266C6.75588 13.2001 6.51806 17.4067 6.57752 17.6594C2.72024 18.2911 2.02905 23.4416 5.6262 25.0246C4.48909 23.1368 5.77484 20.766 8.0788 21.5612C7.89299 20.7214 8.92607 12.7616 15.5407 11.9886C16.0089 11.2083 17.3913 7.10573 22.3262 5.73822C26.57 4.55651 30.2489 6.73413 30.9995 7.20235Z" fill="white"/>
<path d="M3.81235 56.1058C0.30438 57.3618 0.988136 62.4082 4.71907 62.6386C3.37385 67.0384 8.62095 68.4803 10.7688 64.9426C7.76625 64.9872 5.71498 62.1629 7.28316 59.4279C4.99407 58.9448 4.16165 56.195 5.78186 54.5227C3.20291 53.4153 2.37052 50.6431 3.3367 48.1831C-0.773268 49.7513 0.178033 54.3815 3.81235 56.1058Z" fill="white"/>
<path d="M22.653 77.3545C19.9551 79.0193 21.8354 81.8955 24.615 81.7246C26.9264 86.0724 32.6715 86.8082 35.0349 82.0739C36.6477 84.0434 39.7097 83.1813 39.7617 80.5355C38.5429 81.9699 36.5065 82.1259 35.0646 81.0631C32.2627 84.5637 26.7481 83.6049 25.2765 79.3983C23.8495 80.3571 22.0807 78.9673 22.653 77.3545Z" fill="#D7D9D6"/>
<path d="M85.0011 58.9969C88.3753 57.2875 87.8624 52.4715 84.0721 51.7134C84.845 58.7442 81.1958 65.5892 74.4697 68.6438C75.0718 72.8578 71.2591 75.5705 67.3944 74.3814C65.3282 78.5657 60.5419 80.119 56.4766 78.3873C59.7913 84.7492 68.5166 82.252 68.5761 75.2881C72.5151 77.3394 77.0859 74.5969 76.521 69.9816C83.2917 72.1963 88.9921 65.0318 85.0011 58.9969Z" fill="white"/>
<path d="M13.6375 9.20121C13.0504 8.59177 9.81739 10.212 9.9363 11.2227C10.0032 11.7802 11.0809 12.2261 11.9578 12.0626C13.4889 11.7727 14.076 9.65457 13.6375 9.20121Z" fill="#EBECEA"/>
<path d="M3.54491 57.8224C3.15101 57.8373 2.74224 58.7291 2.86859 59.5021C3.06182 60.6466 4.36987 61.2635 4.71918 61.0182C5.25429 60.6466 4.2584 57.8001 3.54491 57.8224Z" fill="#D7D9D6"/>
<path d="M78.5797 16.2695C79.0107 15.8681 80.5566 16.433 81.2701 17.6147C82.1099 19.0194 81.5302 20.8625 80.9357 20.9814C79.9546 21.1747 77.8216 16.9755 78.5797 16.2695Z" fill="#D7D9D6"/>
<path d="M59.7317 3.31548C59.7466 3.50871 61.6715 3.00332 63.6039 4.1553C65.0011 4.9877 65.4991 6.15455 65.7889 6.0059C66.1011 5.8424 65.9673 4.30395 65.068 3.40466C63.3809 1.69527 59.7169 3.04049 59.7317 3.31548Z" fill="#EBECEA"/>
<path d="M84.295 61.1892C83.8936 61.0852 83.5815 62.9358 81.6045 65.2249C79.8283 67.2836 78.2972 67.8484 78.4607 68.2052C78.6763 68.666 81.7086 68.4653 83.3957 66.5255C85.1348 64.4966 84.8003 61.3156 84.295 61.1892Z" fill="#D7D9D6"/>
</svg>
