<svg width="35" height="35" viewBox="0 0 35 35" fill="none" xmlns="http://www.w3.org/2000/svg">
    <path d="M4.18845 25.848C4.19852 25.8633 4.2079 25.8775 4.21657 25.8905C4.24636 25.9474 4.28692 26.0226 4.33889 26.1138C4.44815 26.3056 4.60817 26.5691 4.8251 26.8846C5.25868 27.5152 5.92194 28.3574 6.86447 29.252C11.5244 33.6752 17.5676 33.5481 22.5665 30.9482C27.5281 28.3678 31.6817 23.2756 32.9473 17.3098C33.5846 14.3056 32.6372 11.4726 30.8795 9.15079C29.1316 6.84179 26.5407 4.96799 23.6712 3.74615C18.0142 1.33744 10.6092 1.244 6.03512 6.36692C1.71671 11.2035 1.2291 16.1263 1.87747 19.838C2.19731 21.669 2.78836 23.188 3.29862 24.2502C3.55455 24.783 3.79257 25.2058 3.9706 25.5012C4.0597 25.649 4.13405 25.7654 4.18845 25.848Z" fill="#FAFAF8" stroke="black" stroke-width="3"/>
    <path d="M3 21.2046C3 21.2046 9.10262 34.4353 22.6429 29.1976" stroke="#D7D9D6" stroke-width="4" stroke-linecap="round"/>
    <path d="M27.3582 5.84954C27.3582 5.84954 21.4348 0.750248 10.1792 4.19459" stroke="#D7D9D6" stroke-width="4" stroke-linecap="round"/>
    <path d="M24.5311 9.39855C24.5311 9.39855 22.1441 6.54538 17.8071 7.51262" stroke="black" stroke-width="2" stroke-linecap="round"/>
    <path d="M27.4477 13.3579C27.4477 13.3579 27.6049 12.0684 26.8628 11.7158" stroke="black" stroke-width="2" stroke-linecap="round"/>
    <path d="M4.18845 25.848C4.19852 25.8633 4.2079 25.8775 4.21657 25.8905C4.24636 25.9474 4.28692 26.0226 4.33889 26.1138C4.44815 26.3056 4.60817 26.5691 4.8251 26.8846C5.25868 27.5152 5.92194 28.3574 6.86447 29.252C11.5244 33.6752 17.5676 33.5481 22.5665 30.9482C27.5281 28.3678 31.6817 23.2756 32.9473 17.3098C33.5846 14.3056 32.6372 11.4726 30.8795 9.15079C29.1316 6.84179 26.5407 4.96799 23.6712 3.74615C18.0142 1.33744 10.6092 1.244 6.03512 6.36692C1.71671 11.2035 1.2291 16.1263 1.87747 19.838C2.19731 21.669 2.78836 23.188 3.29862 24.2502C3.55455 24.783 3.79257 25.2058 3.9706 25.5012C4.0597 25.649 4.13405 25.7654 4.18845 25.848Z" stroke="black" stroke-width="3"/>
</svg>
