<svg width="54" height="55" viewBox="0 0 54 55" fill="none" xmlns="http://www.w3.org/2000/svg">
<path d="M5.77814 18.0619C3.51814 16.6219 4.94814 12.6219 6.31814 10.6219C7.75814 8.51186 11.0081 8.04186 13.1481 9.91186C14.0481 4.57186 19.4481 1.48187 24.4481 4.06187C28.8581 -1.55813 38.6681 -0.818132 42.5281 3.07187C45.4981 6.05187 47.0581 12.4019 44.4881 16.8619C51.1781 15.9919 55.9681 22.8019 51.2481 28.3419C54.8381 33.7019 49.2481 42.1319 43.4581 39.4919C46.5981 43.0219 41.5002 48.4507 38.4481 47.1919C41.5002 52.4619 34.7581 57.1319 31.5481 52.4619C25.4981 55.9319 18.4581 50.8019 20.9181 43.9219C16.9981 48.1019 10.4081 45.8919 9.55814 40.3219C6.90814 42.0419 3.45815 41.1619 2.04815 38.8019C0.548148 36.2819 1.65815 32.5719 4.75815 31.2419C-0.999844 28.3419 0.000221729 19.4509 5.77814 18.0619Z" fill="black"/>
<path d="M8.77854 19.0523C4.52854 18.1523 2.11854 23.4523 6.36854 25.4623C3.15854 25.9723 2.99854 30.3723 6.48854 30.5523C6.38854 34.4423 9.57854 37.2923 12.5985 37.0023C14.9385 36.7823 17.0785 34.6923 17.5285 31.8823C17.8285 35.6123 21.3485 38.2223 25.0185 37.4023C24.4585 33.5923 29.6185 32.9223 30.3685 36.5323C31.8485 34.9123 34.4085 34.9023 35.8485 36.4223C37.2385 37.8823 37.1885 40.3023 35.6485 41.7423C38.5985 45.2223 43.8485 41.3623 41.4585 37.5023C47.2585 40.1423 52.8485 33.7123 49.2485 28.3523C53.9585 22.8023 49.1685 16.0023 42.4885 16.8723C45.0685 12.4123 44.4985 7.07228 41.5285 4.08228C37.6585 0.202276 29.8585 0.462281 25.4485 6.07228C20.4485 3.48228 15.0485 6.57228 14.1485 11.9223C12.0085 10.0523 8.75854 10.5223 7.31854 12.6323C5.94854 14.6123 6.50854 17.6123 8.77854 19.0523Z" fill="#D7D9D6"/>
<path d="M39.9282 7.02163C42.0182 9.60163 41.6582 13.8316 39.4882 15.4216C36.7782 17.3916 31.5382 15.0716 30.2082 11.4416C27.7382 4.71163 36.2582 2.49163 39.9282 7.02163Z" fill="white"/>
<path d="M17.3884 14.6824C15.2984 9.45237 21.2284 4.91237 25.0484 9.82237C27.7284 8.94237 29.9384 11.7824 28.1584 14.0824C30.0284 14.7624 31.3384 16.4324 31.3884 18.5124C35.1484 17.3024 39.2484 18.2124 42.1384 20.8724C44.3984 19.9024 47.0284 20.9224 48.0284 23.0824C49.0684 25.3324 48.0284 28.1124 45.6684 29.1224C38.9484 36.0224 27.5984 32.4024 27.6984 22.2024C26.3384 25.0724 23.0284 25.8224 21.2184 24.5624C19.8084 23.5724 19.2184 21.3024 20.1084 19.1924C17.5684 19.6124 15.8284 16.7324 17.3884 14.6824Z" fill="white"/>
<path d="M11.7681 29.4216C8.29812 29.3016 7.56812 34.1316 11.0581 34.9716C12.5681 35.3416 14.2481 34.4216 14.6181 32.9816C15.0281 31.2916 13.5181 29.4816 11.7681 29.4216Z" fill="white"/>
<path d="M14.038 13.3424C13.258 12.1924 11.488 11.4924 10.628 12.2024C9.99802 12.7124 9.97803 13.8624 10.348 14.6224C11.448 16.9224 16.368 16.8024 14.038 13.3424Z" fill="white"/>
<path d="M48.1885 30.4124C47.5985 30.2324 47.1785 31.4024 45.4885 32.6924C43.2085 34.4224 41.4085 34.2224 41.3585 34.9724C41.2685 36.4724 47.0585 38.5224 48.6185 33.9724C49.1085 32.5124 48.8885 30.6324 48.1885 30.4124Z" fill="white"/>
<path d="M8.71797 21.2317C7.25797 22.1617 6.97797 24.0817 7.83797 25.2217C8.73797 26.4017 10.788 26.5917 12.048 25.2917C11.868 27.3117 13.928 28.7317 15.748 27.8517C14.938 28.9217 16.028 30.0117 17.168 29.5617C17.208 31.0017 18.318 32.1517 19.728 32.2617C19.288 34.4217 22.198 35.3717 22.858 33.1117C23.438 34.2617 24.928 33.9917 25.268 32.8217C26.968 32.5217 27.418 30.6917 26.408 29.4117C27.028 29.3917 27.588 29.0417 27.828 28.5017C28.958 26.0017 23.928 25.0117 23.398 28.3917C23.708 26.5717 21.708 25.2517 20.158 26.2817C17.958 27.4917 16.168 25.1717 17.308 23.1517C17.888 22.3617 17.998 21.3217 17.598 20.4417C17.168 19.5017 16.218 18.8917 15.178 18.8817C12.878 16.6017 8.99797 17.9917 8.71797 21.2317Z" fill="white"/>
<path d="M26.8984 38.8919C26.7684 37.9019 27.3784 37.0419 28.0884 36.9019C28.9284 36.7319 29.9884 37.5019 30.0284 38.7119C32.9484 36.4619 36.3284 40.6118 33.5584 43.0318C35.0684 43.2218 35.9984 44.6919 35.6684 45.9519C35.3384 47.2119 33.7884 48.0319 32.3884 47.4419C31.8884 51.1419 26.9784 51.9219 25.3684 48.5519C21.6484 47.3219 23.3484 43.4318 26.7284 43.2818C25.1984 43.4318 23.9884 42.2318 24.0084 41.0318C24.0184 39.8118 25.3384 38.6219 26.8984 38.8919Z" fill="#D7D9D6"/>
<path d="M12.3685 38.772C14.3285 36.692 21.3285 39.292 21.4385 41.542C21.5685 44.062 14.1385 46.282 12.1885 42.262C11.7085 41.252 11.5485 39.652 12.3685 38.772Z" fill="#D7D9D6"/>
<path d="M4.53844 34.2824C3.54844 34.2424 2.39844 35.9824 2.81844 37.3424C3.49844 39.5424 6.02844 39.1024 6.06844 36.5824C6.08844 35.5024 5.33844 34.3224 4.53844 34.2824Z" fill="#D7D9D6"/>
<path d="M36.2483 49.6724C35.2483 49.3524 33.6283 51.1824 33.9783 52.0324C34.2783 52.7724 36.2183 53.2024 36.9383 52.2324C37.5583 51.4024 36.9983 49.9124 36.2483 49.6724Z" fill="#D7D9D6"/>
</svg>
