<svg width="39" height="40" viewBox="0 0 39 40" fill="none" xmlns="http://www.w3.org/2000/svg">
<path d="M6.24361 19.0533L5.77713 20.1386C4.08613 24.073 3.9445 27.4318 4.72873 30.0943C5.51294 32.7567 7.25838 34.8487 9.57516 36.2066C14.2231 38.9309 21.2337 38.7039 27.0156 33.7978L27.4073 33.4654L27.9205 33.443C33.1744 33.213 37.3078 28.959 37.4936 24.0074L6.24361 19.0533ZM6.24361 19.0533L5.29787 18.3454M6.24361 19.0533L5.29787 18.3454M5.29787 18.3454C1.57378 15.558 0.611786 10.7307 2.31543 7.51408C4.36884 3.65837 10.419 1.95402 15.0344 5.36843L16.2924 6.29914M5.29787 18.3454L16.2924 6.29914M16.2924 6.29914L17.169 5.00278M16.2924 6.29914L17.169 5.00278M17.169 5.00278C19.1949 2.00677 23.1479 1.09109 26.1926 2.81907L26.1941 2.81989M17.169 5.00278L26.1941 2.81989M26.1941 2.81989C29.3208 4.58984 30.6023 8.64667 28.9891 12.0078L28.2005 13.6508M26.1941 2.81989L28.2005 13.6508M28.2005 13.6508L29.9644 14.1087M28.2005 13.6508L29.9644 14.1087M29.9644 14.1087C34.5516 15.2997 37.6592 19.5211 37.4937 24.0067L29.9644 14.1087Z" fill="#D7D9D6" stroke="black" stroke-width="3"/>
<path d="M5.88484 19.1087C2.12484 16.3287 1.03484 11.4287 2.87484 7.99872C5.09484 3.87872 11.3848 2.26872 16.0648 5.68872C18.2348 2.51872 22.4848 1.52872 25.7848 3.37872C29.1648 5.26872 30.5148 9.55872 28.7948 13.0987C33.4348 14.2887 36.6048 18.5087 36.4348 23.0487C36.2448 28.0587 32.0348 32.3087 26.7148 32.5387C15.7148 41.7587 -0.485161 33.7487 5.88484 19.1087Z" fill="#D7D9D6"/>
<path d="M6.96492 17.1087C3.72492 14.6187 2.63493 10.5687 3.95493 7.77872C5.64493 4.20872 11.4449 2.44872 16.0649 5.68872C18.2349 2.51872 22.4849 1.52872 25.7849 3.37872C29.1649 5.26872 30.5149 9.55872 28.7949 13.0987C33.7549 14.0587 36.4349 19.0587 35.0849 22.9087C33.9449 26.1687 29.9849 28.3587 25.9049 27.3887C22.4349 33.6787 14.4749 35.2587 9.60492 31.7187C5.46492 28.7087 4.03492 22.3487 6.96492 17.1087Z" fill="white"/>
</svg>
