<svg width="41" height="41" viewBox="0 0 41 41" fill="none" xmlns="http://www.w3.org/2000/svg">
<path d="M7.08872 22.4237C3.43746 22.7395 0.281102 20.1392 0.0171555 16.9178C-0.213798 14.0543 1.90878 11.2856 5.07614 10.5908C5.769 3.93738 14.4572 1.51606 18.7024 6.91667C18.0095 4.27426 20.2971 2.35826 22.9915 2.66356C25.686 -1.82116 31.2839 1.17918 30.2611 5.72706C33.2085 4.26374 36.8707 5.27438 38.5204 7.97995C40.2031 10.7382 39.2463 14.3701 36.3538 16.0651C45 23.9507 38.5204 33.0462 31.2838 34.4148C26.5218 42.9736 13.9074 42.3525 10.498 33.0462C4.20731 31.9408 2.15072 26.2978 7.08872 22.4237Z" fill="black"/>
<path d="M9.47544 22.0824C5.95544 22.4624 3.02546 19.8424 2.90546 16.9024C2.80546 14.5324 4.54545 12.1724 7.17545 11.4024C7.77545 5.42244 15.0455 3.08244 18.9955 7.60244C18.3655 5.09244 20.4455 3.27244 22.8955 3.56244C25.3455 -0.697562 30.4354 2.15244 29.5054 6.47244C32.1854 5.08244 35.5154 6.04244 37.0154 8.61244C38.5454 11.2324 37.6754 14.6824 35.0454 16.2924C38.8554 18.6024 39.5954 23.6524 35.5454 26.1224C37.5154 30.2224 32.4754 34.1124 29.0054 31.1424C29.1654 35.7524 24.3255 38.7924 20.2455 36.6324C15.7955 40.2424 10.7554 35.1124 13.5754 30.5024C7.55545 32.8024 4.80544 25.6324 9.47544 22.0824Z" fill="#D7D9D6"/>
<path d="M9.47558 22.0831C6.24558 22.2131 3.80559 19.5131 4.04559 16.8531C4.25559 14.6031 6.36559 12.6131 9.04559 12.5431C8.59559 6.79309 14.7156 4.19309 18.9956 7.60309C18.1856 4.90309 20.8056 3.35309 23.2156 4.38309C25.1356 0.733093 29.9356 2.60309 29.5156 6.46309C34.9956 5.67309 38.5156 11.7731 34.5856 15.9431C36.5856 17.7231 36.6356 20.5431 35.3656 21.8731C33.9856 23.3131 30.8156 23.2731 29.0456 20.9031C26.9356 22.7131 23.8956 22.5331 22.4556 20.0231C22.5156 22.3631 20.7656 24.3531 18.3456 24.4531C23.8756 22.9131 27.5956 28.1031 25.9056 31.7231C24.0356 35.7131 15.8156 35.9631 14.5156 29.0831C9.92559 31.9131 5.33558 25.5231 9.47558 22.0831Z" fill="white"/>
</svg>
